G04 #@! TF.GenerationSoftware,KiCad,Pcbnew,6.0.4-6f826c9f35~116~ubuntu20.04.1*
G04 #@! TF.CreationDate,2022-04-20T20:16:55-04:00*
G04 #@! TF.ProjectId,kdlfo_panel,6b646c66-6f5f-4706-916e-656c2e6b6963,rev?*
G04 #@! TF.SameCoordinates,Original*
G04 #@! TF.FileFunction,Legend,Top*
G04 #@! TF.FilePolarity,Positive*
%FSLAX46Y46*%
G04 Gerber Fmt 4.6, Leading zero omitted, Abs format (unit mm)*
G04 Created by KiCad (PCBNEW 6.0.4-6f826c9f35~116~ubuntu20.04.1) date 2022-04-20 20:16:55*
%MOMM*%
%LPD*%
G01*
G04 APERTURE LIST*
G04 APERTURE END LIST*
G04 #@! TO.C,GRAF2*
G36*
X67750259Y-126413438D02*
G01*
X67756303Y-126478076D01*
X67760408Y-126573932D01*
X67761962Y-126691194D01*
X67761962Y-126998631D01*
X67692042Y-127014191D01*
X67596613Y-127037203D01*
X67532257Y-127058918D01*
X67479935Y-127086674D01*
X67447624Y-127108417D01*
X67366382Y-127194840D01*
X67321521Y-127306284D01*
X67319520Y-127426644D01*
X67319551Y-127426815D01*
X67331097Y-127465428D01*
X67355173Y-127509252D01*
X67396553Y-127563932D01*
X67460008Y-127635111D01*
X67550312Y-127728434D01*
X67672237Y-127849545D01*
X67700130Y-127876906D01*
X67829239Y-128004474D01*
X67927412Y-128104888D01*
X68000893Y-128185684D01*
X68055927Y-128254398D01*
X68098758Y-128318566D01*
X68135631Y-128385723D01*
X68155544Y-128426474D01*
X68236240Y-128643753D01*
X68268279Y-128856693D01*
X68251510Y-129070087D01*
X68185782Y-129288733D01*
X68124344Y-129421433D01*
X68023959Y-129575917D01*
X67889257Y-129727765D01*
X67735234Y-129861944D01*
X67591215Y-129955861D01*
X67491374Y-130002195D01*
X67375165Y-130044488D01*
X67253652Y-130080122D01*
X67137903Y-130106478D01*
X67038982Y-130120939D01*
X66967954Y-130120885D01*
X66939874Y-130109977D01*
X66933083Y-130079150D01*
X66927588Y-130008459D01*
X66924005Y-129908884D01*
X66922923Y-129807759D01*
X66922923Y-129522491D01*
X67043694Y-129504790D01*
X67213112Y-129461259D01*
X67362215Y-129387043D01*
X67486397Y-129288430D01*
X67581049Y-129171704D01*
X67641562Y-129043152D01*
X67663329Y-128909059D01*
X67641742Y-128775712D01*
X67618365Y-128720910D01*
X67587496Y-128676974D01*
X67527241Y-128604455D01*
X67444153Y-128510753D01*
X67344781Y-128403265D01*
X67242405Y-128296297D01*
X67095646Y-128142688D01*
X66981550Y-128015571D01*
X66894934Y-127907474D01*
X66830619Y-127810921D01*
X66783423Y-127718441D01*
X66748163Y-127622561D01*
X66729679Y-127556784D01*
X66704217Y-127361222D01*
X66725840Y-127170338D01*
X66790787Y-126989287D01*
X66895294Y-126823221D01*
X67035599Y-126677295D01*
X67207939Y-126556662D01*
X67408553Y-126466478D01*
X67555226Y-126426009D01*
X67643077Y-126407885D01*
X67710595Y-126394876D01*
X67742893Y-126389831D01*
X67750259Y-126413438D01*
G37*
G36*
X65874125Y-200988132D02*
G01*
X66229491Y-200990930D01*
X66545871Y-200998586D01*
X66820959Y-201010965D01*
X67052447Y-201027931D01*
X67238027Y-201049347D01*
X67375390Y-201075078D01*
X67382883Y-201076971D01*
X67629458Y-201166274D01*
X67852587Y-201300542D01*
X68005254Y-201431962D01*
X68158492Y-201615405D01*
X68265096Y-201816059D01*
X68325417Y-202035378D01*
X68339806Y-202274811D01*
X68308616Y-202535813D01*
X68291318Y-202614815D01*
X68212264Y-202841019D01*
X68090632Y-203050655D01*
X67933234Y-203235263D01*
X67746882Y-203386384D01*
X67605664Y-203466384D01*
X67456468Y-203527437D01*
X67298198Y-203575423D01*
X67141040Y-203608843D01*
X66995181Y-203626197D01*
X66870806Y-203625986D01*
X66778101Y-203606711D01*
X66750603Y-203592252D01*
X66699682Y-203539397D01*
X66693837Y-203489863D01*
X66727327Y-203448821D01*
X66794410Y-203421444D01*
X66889345Y-203412900D01*
X66944927Y-203417237D01*
X67144653Y-203419099D01*
X67350182Y-203377831D01*
X67548986Y-203297735D01*
X67728539Y-203183113D01*
X67795977Y-203124975D01*
X67941371Y-202959447D01*
X68043967Y-202774834D01*
X68104156Y-202587187D01*
X68140812Y-202340347D01*
X68132534Y-202106483D01*
X68079991Y-201890260D01*
X67983852Y-201696342D01*
X67974217Y-201681813D01*
X67898802Y-201582014D01*
X67816574Y-201501323D01*
X67714064Y-201428748D01*
X67577800Y-201353297D01*
X67561534Y-201345037D01*
X67429489Y-201287518D01*
X67284416Y-201243713D01*
X67115995Y-201211460D01*
X66913908Y-201188600D01*
X66764014Y-201178010D01*
X66465266Y-201160550D01*
X66465266Y-204420020D01*
X65244845Y-204420020D01*
X65244845Y-200987588D01*
X65874125Y-200988132D01*
G37*
G36*
X71464312Y-65540443D02*
G01*
X71519366Y-65364915D01*
X71581696Y-65165676D01*
X71647415Y-64955157D01*
X71712637Y-64745791D01*
X71752269Y-64618319D01*
X71807585Y-64441051D01*
X71859119Y-64277430D01*
X71904633Y-64134444D01*
X71941888Y-64019080D01*
X71968644Y-63938328D01*
X71982664Y-63899176D01*
X71982671Y-63899159D01*
X71996568Y-63873064D01*
X72017792Y-63856613D01*
X72056420Y-63848010D01*
X72122533Y-63845462D01*
X72226207Y-63847174D01*
X72268258Y-63848309D01*
X72528785Y-63855556D01*
X73103669Y-65698899D01*
X73678553Y-67542243D01*
X73385051Y-67549448D01*
X73266246Y-67551414D01*
X73165328Y-67551311D01*
X73093628Y-67549265D01*
X73063369Y-67545839D01*
X73046904Y-67519062D01*
X73019128Y-67451753D01*
X72983067Y-67352170D01*
X72941748Y-67228568D01*
X72909336Y-67125743D01*
X72783484Y-66716460D01*
X72261025Y-66716188D01*
X71738565Y-66715916D01*
X71609343Y-67129079D01*
X71480121Y-67542243D01*
X71159280Y-67549359D01*
X71038294Y-67551039D01*
X70938177Y-67550521D01*
X70868506Y-67547994D01*
X70838855Y-67543649D01*
X70838439Y-67542969D01*
X70845864Y-67515419D01*
X70866394Y-67447899D01*
X70897411Y-67348799D01*
X70936300Y-67226509D01*
X70965566Y-67135436D01*
X71008268Y-67002338D01*
X71044862Y-66886858D01*
X71072732Y-66797366D01*
X71089263Y-66742230D01*
X71092693Y-66728662D01*
X71070557Y-66719706D01*
X71017238Y-66715917D01*
X71016417Y-66715916D01*
X70940141Y-66715916D01*
X70940141Y-66080281D01*
X71293913Y-66080281D01*
X71295921Y-66073924D01*
X71932319Y-66073924D01*
X71955947Y-66076284D01*
X72021029Y-66078246D01*
X72118166Y-66079632D01*
X72237962Y-66080262D01*
X72263763Y-66080281D01*
X72385790Y-66078921D01*
X72485898Y-66075197D01*
X72555089Y-66069645D01*
X72584363Y-66062798D01*
X72584577Y-66061212D01*
X72573867Y-66032032D01*
X72550681Y-65962057D01*
X72517530Y-65859084D01*
X72476919Y-65730912D01*
X72431359Y-65585337D01*
X72427140Y-65571772D01*
X72381160Y-65424780D01*
X72339790Y-65294269D01*
X72305568Y-65188100D01*
X72281030Y-65114134D01*
X72268711Y-65080231D01*
X72268307Y-65079445D01*
X72258514Y-65097952D01*
X72235956Y-65156347D01*
X72203504Y-65246133D01*
X72164029Y-65358809D01*
X72120404Y-65485877D01*
X72075498Y-65618839D01*
X72032184Y-65749196D01*
X71993333Y-65868450D01*
X71961816Y-65968101D01*
X71940504Y-66039651D01*
X71932319Y-66073924D01*
X71295921Y-66073924D01*
X71420419Y-65679830D01*
X71464312Y-65540443D01*
G37*
G36*
X53156987Y-24344445D02*
G01*
X53607600Y-24337501D01*
X53768833Y-24335191D01*
X53886596Y-24334501D01*
X53968260Y-24336219D01*
X54021199Y-24341131D01*
X54052785Y-24350025D01*
X54070393Y-24363688D01*
X54081394Y-24382907D01*
X54083833Y-24388352D01*
X54094716Y-24419961D01*
X54119452Y-24496243D01*
X54156946Y-24613689D01*
X54206103Y-24768788D01*
X54265830Y-24958030D01*
X54335031Y-25177905D01*
X54412613Y-25424903D01*
X54497480Y-25695515D01*
X54588538Y-25986230D01*
X54684693Y-26293537D01*
X54784851Y-26613928D01*
X54887916Y-26943892D01*
X54992794Y-27279918D01*
X55098391Y-27618498D01*
X55203612Y-27956120D01*
X55307363Y-28289275D01*
X55408549Y-28614453D01*
X55506076Y-28928144D01*
X55598849Y-29226838D01*
X55685774Y-29507024D01*
X55765756Y-29765193D01*
X55837701Y-29997835D01*
X55900514Y-30201439D01*
X55953101Y-30372496D01*
X55994367Y-30507496D01*
X56023218Y-30602928D01*
X56038559Y-30655282D01*
X56040841Y-30664449D01*
X56016393Y-30672013D01*
X55946937Y-30678411D01*
X55838310Y-30683390D01*
X55696347Y-30686693D01*
X55526884Y-30688065D01*
X55500189Y-30688088D01*
X54959537Y-30688088D01*
X54732889Y-29963144D01*
X54506242Y-29238199D01*
X53615330Y-29244875D01*
X52724418Y-29251552D01*
X52592484Y-29671071D01*
X52539887Y-29838427D01*
X52483917Y-30016705D01*
X52430002Y-30188599D01*
X52383574Y-30336801D01*
X52367136Y-30389340D01*
X52273723Y-30688088D01*
X51729154Y-30688088D01*
X51530908Y-30686907D01*
X51375273Y-30683430D01*
X51264411Y-30677761D01*
X51200483Y-30670000D01*
X51184585Y-30662401D01*
X51192106Y-30632342D01*
X51213331Y-30560383D01*
X51246256Y-30452987D01*
X51288877Y-30316617D01*
X51339187Y-30157737D01*
X51395183Y-29982811D01*
X51400701Y-29965669D01*
X51457149Y-29789426D01*
X51508097Y-29628491D01*
X51551538Y-29489354D01*
X51585465Y-29378506D01*
X51607871Y-29302437D01*
X51616750Y-29267637D01*
X51616817Y-29266732D01*
X51593378Y-29249661D01*
X51530506Y-29240068D01*
X51489690Y-29238839D01*
X51362563Y-29238839D01*
X51362563Y-28170971D01*
X51963890Y-28170971D01*
X51969836Y-28151902D01*
X53065005Y-28151902D01*
X53089538Y-28157447D01*
X53157640Y-28162357D01*
X53262030Y-28166385D01*
X53395427Y-28169283D01*
X53550552Y-28170803D01*
X53624628Y-28170971D01*
X53814333Y-28170360D01*
X53958125Y-28168335D01*
X54060928Y-28164610D01*
X54127669Y-28158901D01*
X54163272Y-28150920D01*
X54172662Y-28140383D01*
X54172354Y-28139190D01*
X54162415Y-28108236D01*
X54139037Y-28034541D01*
X54104041Y-27923872D01*
X54059246Y-27781994D01*
X54006474Y-27614673D01*
X53947546Y-27427676D01*
X53894304Y-27258607D01*
X53831859Y-27060717D01*
X53774155Y-26878745D01*
X53722976Y-26718252D01*
X53680108Y-26584794D01*
X53647334Y-26483932D01*
X53626439Y-26421223D01*
X53619321Y-26402037D01*
X53610371Y-26423466D01*
X53588430Y-26486904D01*
X53555575Y-26585796D01*
X53513883Y-26713584D01*
X53465432Y-26863711D01*
X53412298Y-27029620D01*
X53356558Y-27204754D01*
X53300291Y-27382557D01*
X53245571Y-27556471D01*
X53194478Y-27719939D01*
X53149088Y-27866405D01*
X53111477Y-27989311D01*
X53083724Y-28082100D01*
X53067905Y-28138215D01*
X53065005Y-28151902D01*
X51969836Y-28151902D01*
X52560438Y-26257708D01*
X53156987Y-24344445D01*
G37*
G36*
X35793728Y-200876501D02*
G01*
X35852669Y-200920998D01*
X35944477Y-200991793D01*
X36065706Y-201086186D01*
X36212907Y-201201476D01*
X36382634Y-201334963D01*
X36571440Y-201483945D01*
X36775877Y-201645722D01*
X36992499Y-201817594D01*
X37022623Y-201841530D01*
X37242661Y-202016318D01*
X37452483Y-202182840D01*
X37648431Y-202338203D01*
X37826848Y-202479514D01*
X37984077Y-202603880D01*
X38116459Y-202708409D01*
X38220337Y-202790206D01*
X38292053Y-202846380D01*
X38327950Y-202874037D01*
X38329250Y-202874993D01*
X38402744Y-202928473D01*
X38390447Y-201969502D01*
X38387394Y-201723131D01*
X38385298Y-201522710D01*
X38384332Y-201363344D01*
X38384668Y-201240140D01*
X38386477Y-201148202D01*
X38389932Y-201082636D01*
X38395204Y-201038548D01*
X38402465Y-201011042D01*
X38411887Y-200995225D01*
X38423642Y-200986201D01*
X38425011Y-200985453D01*
X38491899Y-200975768D01*
X38522723Y-200987588D01*
X38532578Y-200993835D01*
X38541070Y-201003648D01*
X38548300Y-201020602D01*
X38554370Y-201048276D01*
X38559381Y-201090245D01*
X38563435Y-201150087D01*
X38566633Y-201231378D01*
X38569076Y-201337696D01*
X38570867Y-201472617D01*
X38572106Y-201639717D01*
X38572894Y-201842575D01*
X38573334Y-202084766D01*
X38573527Y-202369868D01*
X38573573Y-202701457D01*
X38573574Y-202780975D01*
X38573485Y-203075514D01*
X38573228Y-203354622D01*
X38572817Y-203614221D01*
X38572267Y-203850232D01*
X38571593Y-204058577D01*
X38570810Y-204235179D01*
X38569931Y-204375958D01*
X38568973Y-204476836D01*
X38567949Y-204533736D01*
X38567218Y-204545225D01*
X38546699Y-204529564D01*
X38489628Y-204485020D01*
X38399358Y-204414232D01*
X38279240Y-204319836D01*
X38132625Y-204204471D01*
X37962865Y-204070774D01*
X37773313Y-203921384D01*
X37567319Y-203758937D01*
X37348236Y-203586072D01*
X37276877Y-203529747D01*
X37054021Y-203354033D01*
X36842851Y-203187929D01*
X36646759Y-203034079D01*
X36469136Y-202895123D01*
X36313375Y-202773704D01*
X36182865Y-202672464D01*
X36080999Y-202594045D01*
X36011168Y-202541088D01*
X35976764Y-202516237D01*
X35973824Y-202514653D01*
X35969505Y-202538787D01*
X35965528Y-202608186D01*
X35962007Y-202717262D01*
X35959056Y-202860429D01*
X35956788Y-203032100D01*
X35955318Y-203226689D01*
X35954757Y-203438610D01*
X35954755Y-203452960D01*
X35954679Y-203696263D01*
X35954274Y-203893687D01*
X35953273Y-204050206D01*
X35951411Y-204170792D01*
X35948420Y-204260417D01*
X35944035Y-204324054D01*
X35937989Y-204366675D01*
X35930016Y-204393253D01*
X35919850Y-204408761D01*
X35907225Y-204418171D01*
X35902944Y-204420534D01*
X35839655Y-204436138D01*
X35780674Y-204423581D01*
X35747392Y-204387439D01*
X35747344Y-204387271D01*
X35745050Y-204353974D01*
X35743322Y-204275725D01*
X35742124Y-204157506D01*
X35741424Y-204004303D01*
X35741188Y-203821100D01*
X35741383Y-203612880D01*
X35741975Y-203384628D01*
X35742930Y-203141327D01*
X35744214Y-202887964D01*
X35745795Y-202629520D01*
X35747639Y-202370981D01*
X35749712Y-202117331D01*
X35751980Y-201873554D01*
X35754410Y-201644633D01*
X35756969Y-201435555D01*
X35759622Y-201251301D01*
X35762337Y-201096857D01*
X35765079Y-200977207D01*
X35767815Y-200897335D01*
X35770511Y-200862226D01*
X35771100Y-200861004D01*
X35793728Y-200876501D01*
G37*
G36*
X49276831Y-13555793D02*
G01*
X49277254Y-13555826D01*
X49381499Y-13564064D01*
X49951994Y-12178379D01*
X50056084Y-11925641D01*
X50155002Y-11685637D01*
X50246946Y-11462722D01*
X50330117Y-11261253D01*
X50402716Y-11085583D01*
X50462942Y-10940069D01*
X50508996Y-10829066D01*
X50539078Y-10756930D01*
X50550877Y-10729130D01*
X50579265Y-10665566D01*
X50624944Y-10754555D01*
X50645437Y-10796728D01*
X50684289Y-10878876D01*
X50739483Y-10996629D01*
X50808999Y-11145615D01*
X50890819Y-11321465D01*
X50982924Y-11519807D01*
X51083295Y-11736271D01*
X51189915Y-11966486D01*
X51300763Y-12206082D01*
X51413823Y-12450687D01*
X51527074Y-12695931D01*
X51638499Y-12937443D01*
X51746079Y-13170852D01*
X51847795Y-13391789D01*
X51941628Y-13595881D01*
X52025560Y-13778759D01*
X52097573Y-13936052D01*
X52155647Y-14063388D01*
X52197764Y-14156398D01*
X52221905Y-14210710D01*
X52227027Y-14223362D01*
X52202747Y-14227354D01*
X52134488Y-14230924D01*
X52029119Y-14233913D01*
X51893512Y-14236163D01*
X51734536Y-14237512D01*
X51602940Y-14237838D01*
X50978854Y-14237838D01*
X50780106Y-13805606D01*
X50261270Y-13805606D01*
X50095423Y-13804815D01*
X49939307Y-13802610D01*
X49802915Y-13799245D01*
X49696241Y-13794973D01*
X49629278Y-13790048D01*
X49624592Y-13789454D01*
X49506751Y-13773302D01*
X49443152Y-13922938D01*
X49391176Y-14042059D01*
X49351465Y-14123411D01*
X49318219Y-14176759D01*
X49285641Y-14211868D01*
X49260473Y-14230594D01*
X49216751Y-14252206D01*
X49181535Y-14240689D01*
X49151011Y-14212873D01*
X49096893Y-14158755D01*
X49187286Y-13997118D01*
X49231596Y-13914565D01*
X49263827Y-13848188D01*
X49277567Y-13811274D01*
X49277678Y-13809803D01*
X49255988Y-13785889D01*
X49202440Y-13759602D01*
X49188689Y-13754755D01*
X49125219Y-13724666D01*
X49101032Y-13684196D01*
X49099700Y-13666908D01*
X49119159Y-13598689D01*
X49149279Y-13579794D01*
X49591862Y-13579794D01*
X49612788Y-13594248D01*
X49666274Y-13603005D01*
X49752150Y-13608722D01*
X49907035Y-13615332D01*
X50066782Y-13619778D01*
X50223329Y-13622099D01*
X50368613Y-13622338D01*
X50494570Y-13620533D01*
X50593137Y-13616727D01*
X50656250Y-13610958D01*
X50676077Y-13604078D01*
X50665826Y-13573619D01*
X50637345Y-13505589D01*
X50594034Y-13407275D01*
X50539297Y-13285967D01*
X50476538Y-13148952D01*
X50409158Y-13003520D01*
X50340560Y-12856957D01*
X50274148Y-12716553D01*
X50213325Y-12589595D01*
X50161493Y-12483372D01*
X50122054Y-12405173D01*
X50098413Y-12362285D01*
X50093522Y-12356357D01*
X50081100Y-12378692D01*
X50052778Y-12440715D01*
X50011667Y-12534949D01*
X49960880Y-12653919D01*
X49903529Y-12790148D01*
X49842726Y-12936161D01*
X49781581Y-13084482D01*
X49723208Y-13227635D01*
X49670719Y-13358144D01*
X49627224Y-13468534D01*
X49595836Y-13551328D01*
X49593956Y-13556495D01*
X49591862Y-13579794D01*
X49149279Y-13579794D01*
X49177979Y-13561790D01*
X49276831Y-13555793D01*
G37*
G36*
X67957670Y-111697041D02*
G01*
X68072627Y-111252429D01*
X68234344Y-110817764D01*
X68443102Y-110396498D01*
X68545376Y-110223588D01*
X68812691Y-109840173D01*
X69115922Y-109489542D01*
X69451404Y-109173551D01*
X69815471Y-108894057D01*
X70204459Y-108652917D01*
X70614700Y-108451985D01*
X71042531Y-108293120D01*
X71484284Y-108178177D01*
X71936296Y-108109012D01*
X72394899Y-108087482D01*
X72732722Y-108102995D01*
X73213967Y-108168739D01*
X73676337Y-108280516D01*
X74117543Y-108436290D01*
X74535294Y-108634022D01*
X74927299Y-108871675D01*
X75291268Y-109147212D01*
X75624910Y-109458596D01*
X75925934Y-109803790D01*
X76192051Y-110180755D01*
X76420969Y-110587455D01*
X76610398Y-111021852D01*
X76758048Y-111481909D01*
X76819030Y-111737580D01*
X76838372Y-111835194D01*
X76852922Y-111926181D01*
X76863340Y-112020319D01*
X76870282Y-112127389D01*
X76874408Y-112257170D01*
X76876377Y-112419442D01*
X76876848Y-112596096D01*
X76876307Y-112795343D01*
X76874136Y-112953790D01*
X76869662Y-113081483D01*
X76862211Y-113188463D01*
X76851109Y-113284775D01*
X76835684Y-113380463D01*
X76818147Y-113471390D01*
X76698668Y-113941115D01*
X76535388Y-114385254D01*
X76327639Y-114805074D01*
X76074753Y-115201841D01*
X75776062Y-115576824D01*
X75619915Y-115745642D01*
X75268787Y-116072647D01*
X74890651Y-116357429D01*
X74488417Y-116598882D01*
X74064997Y-116795902D01*
X73623301Y-116947382D01*
X73166238Y-117052218D01*
X72696720Y-117109304D01*
X72217658Y-117117535D01*
X72033434Y-117107602D01*
X71588294Y-117050286D01*
X71147210Y-116945694D01*
X70715884Y-116796687D01*
X70300016Y-116606122D01*
X69905307Y-116376860D01*
X69537457Y-116111760D01*
X69202167Y-115813680D01*
X68980928Y-115576536D01*
X68687681Y-115197753D01*
X68438668Y-114797848D01*
X68234167Y-114380271D01*
X68074460Y-113948475D01*
X67959829Y-113505912D01*
X67890553Y-113056035D01*
X67866914Y-112602296D01*
X67868719Y-112565507D01*
X67893593Y-112565507D01*
X67909867Y-112958409D01*
X67964294Y-113386456D01*
X68052624Y-113786951D01*
X68178426Y-114173150D01*
X68334213Y-114535363D01*
X68560538Y-114950912D01*
X68826201Y-115336896D01*
X69128125Y-115690914D01*
X69463230Y-116010566D01*
X69828438Y-116293451D01*
X70220672Y-116537170D01*
X70636853Y-116739321D01*
X71073903Y-116897504D01*
X71499500Y-117003665D01*
X71622910Y-117027843D01*
X71722123Y-117046168D01*
X71807176Y-117059343D01*
X71888102Y-117068067D01*
X71974938Y-117073040D01*
X72077719Y-117074963D01*
X72206479Y-117074536D01*
X72371255Y-117072459D01*
X72465666Y-117071088D01*
X72669221Y-117067158D01*
X72832223Y-117061437D01*
X72964957Y-117053121D01*
X73077711Y-117041406D01*
X73180774Y-117025487D01*
X73266567Y-117008454D01*
X73740172Y-116881702D01*
X74189465Y-116711135D01*
X74612485Y-116498250D01*
X75007273Y-116244546D01*
X75371865Y-115951523D01*
X75704303Y-115620680D01*
X76002624Y-115253514D01*
X76264868Y-114851525D01*
X76390808Y-114620461D01*
X76565617Y-114237427D01*
X76698050Y-113853638D01*
X76789921Y-113460667D01*
X76843046Y-113050083D01*
X76859237Y-112613459D01*
X76856613Y-112456257D01*
X76845237Y-112198368D01*
X76825653Y-111974872D01*
X76795045Y-111769597D01*
X76750596Y-111566372D01*
X76689492Y-111349026D01*
X76633336Y-111173910D01*
X76462094Y-110737186D01*
X76249707Y-110327466D01*
X75999216Y-109946588D01*
X75713663Y-109596389D01*
X75396088Y-109278708D01*
X75049533Y-108995383D01*
X74677041Y-108748253D01*
X74281652Y-108539154D01*
X73866407Y-108369926D01*
X73434350Y-108242406D01*
X72988520Y-108158432D01*
X72531961Y-108119844D01*
X72067712Y-108128478D01*
X71669795Y-108174244D01*
X71213944Y-108271857D01*
X70777816Y-108414046D01*
X70363641Y-108597976D01*
X69973644Y-108820813D01*
X69610055Y-109079722D01*
X69275099Y-109371870D01*
X68971005Y-109694422D01*
X68700001Y-110044543D01*
X68464314Y-110419399D01*
X68266170Y-110816156D01*
X68107799Y-111231980D01*
X67991428Y-111664036D01*
X67919283Y-112109490D01*
X67893593Y-112565507D01*
X67868719Y-112565507D01*
X67889193Y-112148147D01*
X67957670Y-111697041D01*
G37*
G36*
X42571722Y-10805846D02*
G01*
X42874582Y-10807661D01*
X43132976Y-10813246D01*
X43353203Y-10823462D01*
X43541565Y-10839172D01*
X43704362Y-10861237D01*
X43847895Y-10890517D01*
X43978466Y-10927874D01*
X44102374Y-10974170D01*
X44225921Y-11030265D01*
X44230731Y-11032620D01*
X44445178Y-11165208D01*
X44636993Y-11338397D01*
X44799835Y-11544620D01*
X44927364Y-11776308D01*
X44988273Y-11936837D01*
X45011682Y-12019253D01*
X45027662Y-12100035D01*
X45037504Y-12191863D01*
X45042499Y-12307418D01*
X45043937Y-12459382D01*
X45043930Y-12483484D01*
X45042958Y-12633632D01*
X45039416Y-12745382D01*
X45031777Y-12831176D01*
X45018514Y-12903458D01*
X44998100Y-12974670D01*
X44975809Y-13038638D01*
X44869982Y-13279684D01*
X44736725Y-13488209D01*
X44591629Y-13654410D01*
X44369200Y-13843944D01*
X44115223Y-13996730D01*
X43836445Y-14109478D01*
X43539611Y-14178899D01*
X43506107Y-14183754D01*
X43429168Y-14191367D01*
X43310392Y-14199474D01*
X43158784Y-14207632D01*
X42983349Y-14215401D01*
X42793093Y-14222339D01*
X42609860Y-14227681D01*
X41904305Y-14245641D01*
X41904305Y-14041001D01*
X43124725Y-14041001D01*
X43334485Y-14023359D01*
X43458533Y-14009576D01*
X43586560Y-13989998D01*
X43691955Y-13968727D01*
X43696797Y-13967531D01*
X43953200Y-13878762D01*
X44187279Y-13748883D01*
X44394021Y-13582865D01*
X44568412Y-13385679D01*
X44705437Y-13162298D01*
X44800083Y-12917691D01*
X44815467Y-12858374D01*
X44850345Y-12615456D01*
X44847519Y-12357905D01*
X44808895Y-12100794D01*
X44736378Y-11859197D01*
X44671037Y-11715865D01*
X44539466Y-11515731D01*
X44375168Y-11349248D01*
X44176334Y-11215453D01*
X43941156Y-11113385D01*
X43667824Y-11042081D01*
X43354532Y-11000580D01*
X43321772Y-10998091D01*
X43124725Y-10984032D01*
X43124725Y-14041001D01*
X41904305Y-14041001D01*
X41904305Y-10805406D01*
X42571722Y-10805846D01*
G37*
G36*
X91153354Y-80471071D02*
G01*
X16072073Y-80471071D01*
X16072073Y-79682883D01*
X91153354Y-79682883D01*
X91153354Y-80471071D01*
G37*
G36*
X91153354Y-17899099D02*
G01*
X16072073Y-17899099D01*
X16072073Y-17110911D01*
X91153354Y-17110911D01*
X91153354Y-17899099D01*
G37*
G36*
X64127980Y-200985394D02*
G01*
X64299886Y-200986707D01*
X64436047Y-200988870D01*
X64540239Y-200991967D01*
X64616238Y-200996086D01*
X64667818Y-201001311D01*
X64698758Y-201007728D01*
X64712831Y-201015423D01*
X64713547Y-201016407D01*
X64733498Y-201059053D01*
X64720703Y-201092899D01*
X64690670Y-201122736D01*
X64661753Y-201140179D01*
X64614172Y-201152779D01*
X64539734Y-201161525D01*
X64430247Y-201167408D01*
X64290220Y-201171171D01*
X63935436Y-201178279D01*
X63928891Y-202799150D01*
X63922347Y-204420020D01*
X62702679Y-204420020D01*
X62696135Y-202799150D01*
X62689590Y-201178279D01*
X62498899Y-201170484D01*
X62370450Y-201170298D01*
X62225852Y-201177577D01*
X62111651Y-201188944D01*
X61990655Y-201202398D01*
X61910080Y-201203401D01*
X61860747Y-201190724D01*
X61833480Y-201163134D01*
X61827889Y-201150887D01*
X61825472Y-201087995D01*
X61870928Y-201039861D01*
X61935798Y-201014359D01*
X61980219Y-201009217D01*
X62070983Y-201004341D01*
X62203583Y-200999823D01*
X62373512Y-200995753D01*
X62576262Y-200992222D01*
X62807326Y-200989321D01*
X63062197Y-200987140D01*
X63336368Y-200985770D01*
X63360032Y-200985695D01*
X63661829Y-200984974D01*
X63916552Y-200984845D01*
X64127980Y-200985394D01*
G37*
G36*
X51432153Y-200990447D02*
G01*
X51632827Y-201039240D01*
X51835199Y-201117425D01*
X51888084Y-201141986D01*
X52032691Y-201221036D01*
X52134210Y-201298403D01*
X52190888Y-201371927D01*
X52200973Y-201439446D01*
X52171092Y-201491011D01*
X52134397Y-201515183D01*
X52089127Y-201515313D01*
X52026776Y-201488544D01*
X51938841Y-201432020D01*
X51888757Y-201396189D01*
X51735027Y-201295780D01*
X51585039Y-201225427D01*
X51424930Y-201181018D01*
X51240840Y-201158439D01*
X51070171Y-201153335D01*
X50765065Y-201152853D01*
X50758514Y-202710161D01*
X50751962Y-204267468D01*
X50924793Y-204267468D01*
X51177701Y-204242748D01*
X51421742Y-204171306D01*
X51650328Y-204057221D01*
X51856871Y-203904571D01*
X52034781Y-203717434D01*
X52177472Y-203499889D01*
X52183570Y-203488274D01*
X52225999Y-203404059D01*
X52253317Y-203337761D01*
X52268845Y-203273598D01*
X52275903Y-203195790D01*
X52277812Y-203088557D01*
X52277878Y-203040086D01*
X52279791Y-202909587D01*
X52286197Y-202821732D01*
X52298103Y-202768435D01*
X52314796Y-202742955D01*
X52358331Y-202727735D01*
X52411512Y-202730918D01*
X52450478Y-202749192D01*
X52457158Y-202762725D01*
X52457572Y-202791494D01*
X52458136Y-202864908D01*
X52458816Y-202976757D01*
X52459578Y-203120837D01*
X52460389Y-203290939D01*
X52461214Y-203480857D01*
X52461653Y-203589415D01*
X52462390Y-203820329D01*
X52462209Y-204005450D01*
X52460551Y-204149834D01*
X52456855Y-204258538D01*
X52450561Y-204336618D01*
X52441108Y-204389131D01*
X52427936Y-204421134D01*
X52410485Y-204437683D01*
X52388194Y-204443834D01*
X52366867Y-204444667D01*
X52329958Y-204439917D01*
X52303954Y-204420843D01*
X52287180Y-204380206D01*
X52277966Y-204310768D01*
X52274636Y-204205293D01*
X52275519Y-204056542D01*
X52275614Y-204049892D01*
X52280675Y-203700004D01*
X52181969Y-203824877D01*
X52019905Y-204003292D01*
X51838594Y-204157002D01*
X51672217Y-204262992D01*
X51456171Y-204354609D01*
X51211087Y-204418266D01*
X50951978Y-204451409D01*
X50693854Y-204451482D01*
X50610324Y-204443681D01*
X50335803Y-204386391D01*
X50081310Y-204284428D01*
X49850877Y-204141387D01*
X49648535Y-203960864D01*
X49478315Y-203746454D01*
X49344248Y-203501753D01*
X49250469Y-203230764D01*
X49214808Y-203029501D01*
X49200791Y-202803353D01*
X49208395Y-202573435D01*
X49237595Y-202360865D01*
X49251541Y-202299781D01*
X49347651Y-202023821D01*
X49487181Y-201771127D01*
X49666691Y-201545215D01*
X49882741Y-201349603D01*
X50131891Y-201187807D01*
X50410701Y-201063345D01*
X50485386Y-201038239D01*
X50622992Y-201004054D01*
X50787132Y-200981259D01*
X50971452Y-200968864D01*
X51217066Y-200968003D01*
X51432153Y-200990447D01*
G37*
G36*
X91153354Y-198089089D02*
G01*
X16072073Y-198089089D01*
X16072073Y-197300901D01*
X91153354Y-197300901D01*
X91153354Y-198089089D01*
G37*
G36*
X70348999Y-126394939D02*
G01*
X70647748Y-126402103D01*
X70654270Y-128264515D01*
X70660791Y-130126927D01*
X70050251Y-130126927D01*
X70050251Y-127838639D01*
X69134935Y-127838639D01*
X69134935Y-130126927D01*
X68524725Y-130126927D01*
X68524725Y-127838639D01*
X68295896Y-127838639D01*
X68295896Y-127203003D01*
X68524725Y-127203003D01*
X68524725Y-126389390D01*
X69134935Y-126389390D01*
X69134935Y-127203003D01*
X70050251Y-127203003D01*
X70050251Y-126387776D01*
X70348999Y-126394939D01*
G37*
G36*
X36408963Y-67596269D02*
G01*
X36530939Y-67314729D01*
X36638645Y-67136722D01*
X36719458Y-67035201D01*
X36830054Y-66919756D01*
X36956834Y-66802984D01*
X37086196Y-66697484D01*
X37193940Y-66622364D01*
X37460123Y-66484226D01*
X37734514Y-66393592D01*
X38012669Y-66348711D01*
X38290147Y-66347834D01*
X38562505Y-66389214D01*
X38825299Y-66471099D01*
X39074088Y-66591741D01*
X39304427Y-66749391D01*
X39511875Y-66942300D01*
X39691989Y-67168718D01*
X39840326Y-67426897D01*
X39950110Y-67707508D01*
X39991795Y-67896944D01*
X40011589Y-68112870D01*
X40009493Y-68336277D01*
X39985506Y-68548158D01*
X39950116Y-68698004D01*
X39859809Y-68938933D01*
X39746410Y-69163218D01*
X39618426Y-69354073D01*
X39616151Y-69356959D01*
X39560473Y-69430027D01*
X39533456Y-69476052D01*
X39530655Y-69506587D01*
X39547624Y-69533186D01*
X39548135Y-69533758D01*
X39584242Y-69581123D01*
X39633130Y-69654298D01*
X39687624Y-69741318D01*
X39740546Y-69830220D01*
X39784719Y-69909039D01*
X39812966Y-69965810D01*
X39819420Y-69986004D01*
X39798635Y-70007237D01*
X39743627Y-70045363D01*
X39665414Y-70094061D01*
X39575012Y-70147007D01*
X39483440Y-70197880D01*
X39401716Y-70240355D01*
X39340858Y-70268112D01*
X39314994Y-70275476D01*
X39292611Y-70254694D01*
X39260797Y-70202671D01*
X39249490Y-70180131D01*
X39207332Y-70103412D01*
X39150050Y-70013234D01*
X39116806Y-69965809D01*
X39029536Y-69846833D01*
X38896900Y-69907526D01*
X38680515Y-69988735D01*
X38453179Y-70036742D01*
X38199637Y-70054624D01*
X38166767Y-70054891D01*
X37968357Y-70048067D01*
X37793229Y-70023796D01*
X37623922Y-69977851D01*
X37442975Y-69906004D01*
X37327728Y-69851739D01*
X37212591Y-69792118D01*
X37118603Y-69734225D01*
X37031053Y-69667151D01*
X36935230Y-69579987D01*
X36856339Y-69502167D01*
X36654483Y-69271412D01*
X36501163Y-69031665D01*
X36394208Y-68777758D01*
X36331449Y-68504524D01*
X36310714Y-68206797D01*
X36310711Y-68203304D01*
X36313712Y-68165549D01*
X36912519Y-68165549D01*
X36926113Y-68390007D01*
X36979587Y-68608297D01*
X37071944Y-68814413D01*
X37202188Y-69002353D01*
X37369322Y-69166110D01*
X37572350Y-69299680D01*
X37607408Y-69317511D01*
X37737686Y-69372242D01*
X37876977Y-69415619D01*
X38013882Y-69445600D01*
X38137002Y-69460145D01*
X38234938Y-69457214D01*
X38289589Y-69439636D01*
X38295318Y-69421827D01*
X38253801Y-69404997D01*
X38163952Y-69388902D01*
X38024684Y-69373301D01*
X37969720Y-69368392D01*
X37785386Y-69352699D01*
X37785386Y-68749950D01*
X37880731Y-68750100D01*
X37989475Y-68756638D01*
X38129314Y-68773929D01*
X38282410Y-68798898D01*
X38430924Y-68828472D01*
X38557017Y-68859577D01*
X38608090Y-68875435D01*
X38718717Y-68918777D01*
X38838030Y-68972891D01*
X38898929Y-69003932D01*
X39040837Y-69080792D01*
X39110253Y-69014288D01*
X39160071Y-68955220D01*
X39217227Y-68871126D01*
X39257210Y-68802301D01*
X39354962Y-68568505D01*
X39404454Y-68329390D01*
X39406597Y-68090627D01*
X39362306Y-67857886D01*
X39272494Y-67636838D01*
X39138074Y-67433152D01*
X39015488Y-67301651D01*
X38815270Y-67146600D01*
X38598535Y-67036912D01*
X38371085Y-66972506D01*
X38138721Y-66953299D01*
X37907246Y-66979210D01*
X37682461Y-67050157D01*
X37470169Y-67166059D01*
X37276877Y-67326127D01*
X37120984Y-67515211D01*
X37008958Y-67722147D01*
X36939802Y-67940927D01*
X36912519Y-68165549D01*
X36313712Y-68165549D01*
X36335367Y-67893067D01*
X36408963Y-67596269D01*
G37*
G36*
X74192658Y-126397252D02*
G01*
X74408886Y-126413857D01*
X74589125Y-126443192D01*
X74747405Y-126488816D01*
X74897757Y-126554292D01*
X74974572Y-126595717D01*
X75189368Y-126746611D01*
X75372997Y-126934216D01*
X75521096Y-127152028D01*
X75629301Y-127393543D01*
X75693246Y-127652259D01*
X75695928Y-127670668D01*
X75705549Y-127918266D01*
X75668675Y-128164283D01*
X75589386Y-128401868D01*
X75471762Y-128624167D01*
X75319885Y-128824328D01*
X75137835Y-128995496D01*
X74929694Y-129130820D01*
X74788876Y-129193886D01*
X74691674Y-129228761D01*
X74604016Y-129257526D01*
X74544689Y-129274020D01*
X74544195Y-129274125D01*
X74474275Y-129288857D01*
X74474275Y-130126927D01*
X73864064Y-130126927D01*
X73864064Y-127851352D01*
X74474275Y-127851352D01*
X74474779Y-128088811D01*
X74476382Y-128279109D01*
X74479225Y-128425928D01*
X74483443Y-128532947D01*
X74489177Y-128603848D01*
X74496565Y-128642311D01*
X74504385Y-128652253D01*
X74543981Y-128641822D01*
X74609178Y-128615465D01*
X74641744Y-128600335D01*
X74746627Y-128531889D01*
X74855915Y-128431557D01*
X74955209Y-128314700D01*
X75030113Y-128196680D01*
X75040716Y-128174693D01*
X75073410Y-128083117D01*
X75090557Y-127978999D01*
X75095409Y-127851352D01*
X75075917Y-127648841D01*
X75015155Y-127473211D01*
X74910843Y-127318695D01*
X74865501Y-127270391D01*
X74795628Y-127210752D01*
X74709405Y-127150332D01*
X74621161Y-127097768D01*
X74545230Y-127061696D01*
X74500545Y-127050451D01*
X74492024Y-127075801D01*
X74485169Y-127151868D01*
X74479979Y-127278675D01*
X74476454Y-127456245D01*
X74474593Y-127684601D01*
X74474275Y-127851352D01*
X73864064Y-127851352D01*
X73864064Y-126381535D01*
X74192658Y-126397252D01*
G37*
G36*
X36347949Y-130368832D02*
G01*
X36393200Y-130193246D01*
X36398701Y-130177778D01*
X36528846Y-129886614D01*
X36692812Y-129632857D01*
X36892752Y-129414128D01*
X37130817Y-129228048D01*
X37391292Y-129080774D01*
X37663689Y-128976728D01*
X37946500Y-128919904D01*
X38233706Y-128909401D01*
X38519285Y-128944319D01*
X38797217Y-129023757D01*
X39061481Y-129146816D01*
X39306057Y-129312595D01*
X39383865Y-129378719D01*
X39563667Y-129567733D01*
X39724246Y-129789776D01*
X39856834Y-130030356D01*
X39952660Y-130274981D01*
X39975125Y-130355756D01*
X39996075Y-130483981D01*
X40006577Y-130644405D01*
X40006905Y-130819521D01*
X39997336Y-130991822D01*
X39978146Y-131143801D01*
X39961515Y-131220221D01*
X39882660Y-131449149D01*
X39774142Y-131676992D01*
X39647375Y-131880077D01*
X39635711Y-131895995D01*
X39520833Y-132050549D01*
X39627885Y-132213813D01*
X39689122Y-132308324D01*
X39747343Y-132400050D01*
X39790080Y-132469348D01*
X39790532Y-132470104D01*
X39846126Y-132563130D01*
X39581099Y-132705289D01*
X39476888Y-132760719D01*
X39390023Y-132806041D01*
X39329684Y-132836525D01*
X39305125Y-132847448D01*
X39289197Y-132826508D01*
X39260036Y-132772730D01*
X39237176Y-132725745D01*
X39185278Y-132631051D01*
X39122364Y-132537223D01*
X39099346Y-132508007D01*
X39018519Y-132411970D01*
X38874312Y-132478110D01*
X38655724Y-132554964D01*
X38410056Y-132601322D01*
X38151390Y-132616548D01*
X37893805Y-132600008D01*
X37651382Y-132551068D01*
X37600338Y-132535518D01*
X37319664Y-132417935D01*
X37064564Y-132258654D01*
X36839051Y-132062033D01*
X36647142Y-131832426D01*
X36492848Y-131574192D01*
X36380185Y-131291687D01*
X36348683Y-131177059D01*
X36319448Y-130994894D01*
X36310177Y-130787543D01*
X36311898Y-130749850D01*
X36914583Y-130749850D01*
X36937222Y-130999346D01*
X37005427Y-131233101D01*
X37115356Y-131446010D01*
X37263165Y-131632965D01*
X37445011Y-131788858D01*
X37657051Y-131908582D01*
X37833995Y-131971681D01*
X37898138Y-131984711D01*
X37979134Y-131994699D01*
X38067435Y-132001471D01*
X38153491Y-132004850D01*
X38227753Y-132004660D01*
X38280673Y-132000726D01*
X38302700Y-131992872D01*
X38284286Y-131980923D01*
X38281182Y-131979911D01*
X38218995Y-131966004D01*
X38124866Y-131951450D01*
X38017582Y-131939092D01*
X38001502Y-131937602D01*
X37798099Y-131919420D01*
X37783705Y-131314138D01*
X38032443Y-131329500D01*
X38270338Y-131358214D01*
X38510055Y-131412564D01*
X38733520Y-131487658D01*
X38895123Y-131563012D01*
X39051408Y-131648605D01*
X39103092Y-131593322D01*
X39211110Y-131448385D01*
X39301602Y-131269705D01*
X39368680Y-131073040D01*
X39406452Y-130874147D01*
X39412613Y-130765152D01*
X39388472Y-130524120D01*
X39319279Y-130297748D01*
X39209873Y-130090881D01*
X39065098Y-129908368D01*
X38889795Y-129755055D01*
X38688806Y-129635788D01*
X38466973Y-129555414D01*
X38229137Y-129518780D01*
X38165753Y-129517019D01*
X37921762Y-129540444D01*
X37693456Y-129608544D01*
X37485533Y-129716689D01*
X37302689Y-129860252D01*
X37149621Y-130034603D01*
X37031027Y-130235115D01*
X36951604Y-130457160D01*
X36916048Y-130696109D01*
X36914583Y-130749850D01*
X36311898Y-130749850D01*
X36319976Y-130572893D01*
X36347949Y-130368832D01*
G37*
G36*
X74213664Y-63848131D02*
G01*
X74373194Y-63854473D01*
X74494183Y-63863938D01*
X74588916Y-63878140D01*
X74669680Y-63898693D01*
X74714091Y-63913836D01*
X74964975Y-64032430D01*
X75186994Y-64190906D01*
X75376072Y-64384907D01*
X75528134Y-64610076D01*
X75639105Y-64862057D01*
X75658411Y-64923424D01*
X75691343Y-65094145D01*
X75701835Y-65288960D01*
X75690203Y-65486492D01*
X75656766Y-65665360D01*
X75646892Y-65698899D01*
X75548926Y-65931356D01*
X75411736Y-66145864D01*
X75242145Y-66335901D01*
X75046974Y-66494946D01*
X74833043Y-66616477D01*
X74607173Y-66693972D01*
X74605783Y-66694294D01*
X74474275Y-66724650D01*
X74474275Y-67554955D01*
X73864064Y-67554955D01*
X73864064Y-65290379D01*
X74474275Y-65290379D01*
X74474664Y-65488191D01*
X74475767Y-65668691D01*
X74477489Y-65825869D01*
X74479734Y-65953714D01*
X74482406Y-66046215D01*
X74485410Y-66097360D01*
X74487265Y-66105706D01*
X74515950Y-66095789D01*
X74574275Y-66070573D01*
X74611496Y-66053416D01*
X74780307Y-65946919D01*
X74919960Y-65803559D01*
X75024515Y-65631712D01*
X75088032Y-65439757D01*
X75100041Y-65364443D01*
X75096593Y-65182977D01*
X75049512Y-65003964D01*
X74964785Y-64836592D01*
X74848401Y-64690048D01*
X74706347Y-64573519D01*
X74544612Y-64496193D01*
X74531482Y-64492118D01*
X74474275Y-64475052D01*
X74474275Y-65290379D01*
X73864064Y-65290379D01*
X73864064Y-63837967D01*
X74213664Y-63848131D01*
G37*
G36*
X78033834Y-64453053D02*
G01*
X76711712Y-64453053D01*
X76711712Y-64656457D01*
X78059260Y-64656457D01*
X78059260Y-65266667D01*
X76711712Y-65266667D01*
X76711904Y-65489140D01*
X76724934Y-65755542D01*
X76765210Y-65985147D01*
X76835253Y-66185596D01*
X76937584Y-66364526D01*
X77044867Y-66497832D01*
X77226099Y-66660235D01*
X77440091Y-66790954D01*
X77676074Y-66884592D01*
X77917175Y-66935047D01*
X78059260Y-66951746D01*
X78059260Y-67554955D01*
X77887638Y-67553084D01*
X77767463Y-67545153D01*
X77632590Y-67526535D01*
X77538038Y-67507224D01*
X77252147Y-67410925D01*
X76987426Y-67270335D01*
X76748368Y-67089200D01*
X76539470Y-66871270D01*
X76365225Y-66620291D01*
X76280831Y-66458953D01*
X76219112Y-66312828D01*
X76173841Y-66169979D01*
X76142222Y-66016902D01*
X76121456Y-65840092D01*
X76108863Y-65628979D01*
X76094033Y-65266667D01*
X75898099Y-65266667D01*
X75898099Y-64656457D01*
X76101502Y-64656457D01*
X76101502Y-63842843D01*
X78033834Y-63842843D01*
X78033834Y-64453053D01*
G37*
G36*
X67761962Y-64446358D02*
G01*
X67660975Y-64459903D01*
X67532874Y-64496643D01*
X67427375Y-64564552D01*
X67351940Y-64655259D01*
X67314032Y-64760391D01*
X67315421Y-64847578D01*
X67354533Y-64943851D01*
X67439720Y-65061161D01*
X67571032Y-65199567D01*
X67726929Y-65340709D01*
X67896545Y-65498534D01*
X68028301Y-65650939D01*
X68131992Y-65810236D01*
X68186892Y-65918746D01*
X68219633Y-65996278D01*
X68240004Y-66066674D01*
X68250794Y-66146411D01*
X68254792Y-66251968D01*
X68255113Y-66321822D01*
X68252208Y-66458926D01*
X68242194Y-66562546D01*
X68222600Y-66649835D01*
X68197503Y-66721631D01*
X68088091Y-66932361D01*
X67938002Y-67121266D01*
X67754739Y-67282792D01*
X67545800Y-67411385D01*
X67318689Y-67501491D01*
X67082244Y-67547431D01*
X66921245Y-67562465D01*
X66928440Y-67261930D01*
X66935636Y-66961395D01*
X67075476Y-66931570D01*
X67202633Y-66900404D01*
X67297394Y-66864857D01*
X67378030Y-66816234D01*
X67459502Y-66748833D01*
X67570315Y-66621639D01*
X67637203Y-66482886D01*
X67658375Y-66339282D01*
X67632041Y-66197536D01*
X67616528Y-66160399D01*
X67584440Y-66111728D01*
X67523104Y-66035375D01*
X67439467Y-65939378D01*
X67340477Y-65831770D01*
X67258840Y-65746746D01*
X67097447Y-65578588D01*
X66970377Y-65437184D01*
X66873719Y-65315763D01*
X66803560Y-65207556D01*
X66755989Y-65105791D01*
X66727093Y-65003700D01*
X66712961Y-64894511D01*
X66709650Y-64796297D01*
X66722334Y-64618586D01*
X66766148Y-64465132D01*
X66847211Y-64319036D01*
X66914818Y-64229654D01*
X67027087Y-64119128D01*
X67169479Y-64018077D01*
X67327781Y-63933764D01*
X67487777Y-63873448D01*
X67635250Y-63844389D01*
X67672171Y-63842843D01*
X67761962Y-63842843D01*
X67761962Y-64446358D01*
G37*
G36*
X32210861Y-66340101D02*
G01*
X32366003Y-66347993D01*
X32485745Y-66359727D01*
X32585516Y-66377677D01*
X32680746Y-66404216D01*
X32725152Y-66419215D01*
X32965490Y-66528651D01*
X33184341Y-66677816D01*
X33374065Y-66859965D01*
X33527022Y-67068353D01*
X33587270Y-67180167D01*
X33656180Y-67346282D01*
X33698235Y-67507177D01*
X33717770Y-67683329D01*
X33720476Y-67809210D01*
X33694819Y-68071072D01*
X33620564Y-68320326D01*
X33499119Y-68553576D01*
X33331897Y-68767425D01*
X33315349Y-68784877D01*
X33241642Y-68853915D01*
X33149020Y-68930119D01*
X33050487Y-69003902D01*
X32959047Y-69065677D01*
X32887701Y-69105858D01*
X32870552Y-69112822D01*
X32854702Y-69134625D01*
X32883326Y-69171985D01*
X32953392Y-69222325D01*
X33061867Y-69283068D01*
X33084190Y-69294384D01*
X33205954Y-69349104D01*
X33330179Y-69390223D01*
X33473089Y-69422193D01*
X33647398Y-69449007D01*
X33768169Y-69464978D01*
X33768169Y-70078047D01*
X33571122Y-70060463D01*
X33258542Y-70010244D01*
X32967162Y-69918247D01*
X32702882Y-69786475D01*
X32634529Y-69742713D01*
X32569268Y-69699847D01*
X32523103Y-69671721D01*
X32509405Y-69665266D01*
X32503640Y-69688646D01*
X32497657Y-69750638D01*
X32492561Y-69839022D01*
X32491610Y-69862313D01*
X32484185Y-70059360D01*
X31886687Y-70073686D01*
X31886687Y-67796497D01*
X32496897Y-67796497D01*
X32497325Y-68029502D01*
X32498719Y-68215889D01*
X32501248Y-68359884D01*
X32505079Y-68465714D01*
X32510380Y-68537604D01*
X32517320Y-68579782D01*
X32526064Y-68596473D01*
X32528679Y-68597159D01*
X32566770Y-68585080D01*
X32632148Y-68554115D01*
X32689567Y-68522869D01*
X32851512Y-68402319D01*
X32977061Y-68251361D01*
X33063729Y-68077478D01*
X33109030Y-67888155D01*
X33110478Y-67690876D01*
X33065587Y-67493127D01*
X33047323Y-67445664D01*
X32993749Y-67352249D01*
X32913590Y-67254052D01*
X32817407Y-67160212D01*
X32715764Y-67079864D01*
X32619223Y-67022145D01*
X32538347Y-66996192D01*
X32527008Y-66995596D01*
X32518081Y-67008998D01*
X32510926Y-67051657D01*
X32505406Y-67127254D01*
X32501383Y-67239470D01*
X32498717Y-67391986D01*
X32497271Y-67588483D01*
X32496897Y-67796497D01*
X31886687Y-67796497D01*
X31886687Y-66327786D01*
X32210861Y-66340101D01*
G37*
G36*
X48667071Y-10798963D02*
G01*
X48687476Y-10824475D01*
X48691731Y-10858662D01*
X48694992Y-10938216D01*
X48697229Y-11057662D01*
X48698415Y-11211525D01*
X48698519Y-11394329D01*
X48697512Y-11600601D01*
X48695364Y-11824865D01*
X48693567Y-11962263D01*
X48677860Y-13055556D01*
X48611161Y-13246247D01*
X48535068Y-13439008D01*
X48450895Y-13597347D01*
X48348739Y-13737661D01*
X48248292Y-13847068D01*
X48063621Y-14000641D01*
X47848238Y-14125274D01*
X47618166Y-14212066D01*
X47567909Y-14225024D01*
X47454333Y-14243303D01*
X47308392Y-14254864D01*
X47148165Y-14259419D01*
X46991732Y-14256680D01*
X46857169Y-14246359D01*
X46798699Y-14237279D01*
X46586287Y-14175575D01*
X46377381Y-14079946D01*
X46186596Y-13958588D01*
X46028547Y-13819696D01*
X46002236Y-13790633D01*
X45934464Y-13701333D01*
X45863185Y-13590067D01*
X45807164Y-13487403D01*
X45769640Y-13408513D01*
X45738293Y-13335829D01*
X45712566Y-13263975D01*
X45691903Y-13187572D01*
X45675749Y-13101246D01*
X45663546Y-12999618D01*
X45654740Y-12877313D01*
X45648774Y-12728955D01*
X45645092Y-12549165D01*
X45643138Y-12332569D01*
X45642357Y-12073789D01*
X45642218Y-11892343D01*
X45641842Y-10805406D01*
X46862263Y-10805406D01*
X46862263Y-14053929D01*
X46919470Y-14069260D01*
X46991764Y-14079626D01*
X47098468Y-14084286D01*
X47223500Y-14083565D01*
X47350779Y-14077789D01*
X47464222Y-14067283D01*
X47528429Y-14056947D01*
X47755668Y-13984696D01*
X47955990Y-13869683D01*
X48128517Y-13712820D01*
X48272374Y-13515022D01*
X48386684Y-13277203D01*
X48444798Y-13101334D01*
X48458647Y-13049600D01*
X48470035Y-12998964D01*
X48479236Y-12943890D01*
X48486522Y-12878846D01*
X48492167Y-12798297D01*
X48496444Y-12696711D01*
X48499627Y-12568552D01*
X48501987Y-12408287D01*
X48503800Y-12210383D01*
X48505336Y-11969306D01*
X48505916Y-11863133D01*
X48507643Y-11595553D01*
X48509812Y-11374786D01*
X48512574Y-11196793D01*
X48516075Y-11057538D01*
X48520464Y-10952982D01*
X48525891Y-10879089D01*
X48532503Y-10831821D01*
X48540449Y-10807139D01*
X48544963Y-10802011D01*
X48610881Y-10781173D01*
X48667071Y-10798963D01*
G37*
G36*
X57140491Y-10811310D02*
G01*
X57757057Y-10818119D01*
X57770149Y-14065621D01*
X58119559Y-14049559D01*
X58259101Y-14043098D01*
X58390777Y-14036919D01*
X58500957Y-14031666D01*
X58576010Y-14027986D01*
X58583384Y-14027609D01*
X58654277Y-14026562D01*
X58689202Y-14037849D01*
X58702777Y-14068637D01*
X58705440Y-14087462D01*
X58708321Y-14120083D01*
X58705789Y-14147102D01*
X58693498Y-14169088D01*
X58667101Y-14186612D01*
X58622255Y-14200244D01*
X58554614Y-14210553D01*
X58459831Y-14218110D01*
X58333562Y-14223483D01*
X58171461Y-14227244D01*
X57969182Y-14229961D01*
X57722380Y-14232205D01*
X57593900Y-14233226D01*
X57369467Y-14234537D01*
X57160925Y-14234890D01*
X56973746Y-14234340D01*
X56813398Y-14232942D01*
X56685354Y-14230752D01*
X56595083Y-14227824D01*
X56548056Y-14224213D01*
X56542619Y-14222632D01*
X56539438Y-14194660D01*
X56536427Y-14120062D01*
X56533633Y-14003061D01*
X56531102Y-13847884D01*
X56528879Y-13658754D01*
X56527010Y-13439896D01*
X56525542Y-13195534D01*
X56524520Y-12929893D01*
X56523990Y-12647197D01*
X56523924Y-12504220D01*
X56523924Y-10804502D01*
X57140491Y-10811310D01*
G37*
G36*
X32354327Y-29671497D02*
G01*
X32386754Y-29476961D01*
X32390818Y-29459863D01*
X32497928Y-29123854D01*
X32648157Y-28806038D01*
X32837503Y-28512425D01*
X33061966Y-28249026D01*
X33317544Y-28021851D01*
X33377850Y-27977116D01*
X33535844Y-27876810D01*
X33724976Y-27776879D01*
X33926251Y-27686217D01*
X34120672Y-27613717D01*
X34213114Y-27586052D01*
X34413601Y-27545747D01*
X34642777Y-27521433D01*
X34880881Y-27513852D01*
X35108150Y-27523744D01*
X35276568Y-27546164D01*
X35628129Y-27637373D01*
X35956263Y-27772322D01*
X36257966Y-27948280D01*
X36530232Y-28162520D01*
X36770057Y-28412312D01*
X36974436Y-28694928D01*
X37140364Y-29007640D01*
X37264837Y-29347718D01*
X37266443Y-29353254D01*
X37317080Y-29586550D01*
X37345175Y-29846689D01*
X37350051Y-30114603D01*
X37331031Y-30371227D01*
X37307604Y-30513126D01*
X37211157Y-30857636D01*
X37071164Y-31179370D01*
X36890849Y-31475070D01*
X36673438Y-31741477D01*
X36422156Y-31975335D01*
X36140228Y-32173384D01*
X35830880Y-32332368D01*
X35497337Y-32449028D01*
X35357258Y-32483242D01*
X35203113Y-32508242D01*
X35021726Y-32525050D01*
X34832456Y-32532850D01*
X34654660Y-32530830D01*
X34511854Y-32518773D01*
X34166660Y-32445390D01*
X33839857Y-32327063D01*
X33535122Y-32167192D01*
X33256133Y-31969179D01*
X33006568Y-31736424D01*
X32790103Y-31472326D01*
X32610417Y-31180287D01*
X32471185Y-30863706D01*
X32380798Y-30548249D01*
X32350415Y-30351085D01*
X32335988Y-30126966D01*
X32336051Y-30116150D01*
X32357066Y-30116150D01*
X32393344Y-30456838D01*
X32477117Y-30788292D01*
X32606707Y-31105680D01*
X32780437Y-31404172D01*
X32996629Y-31678937D01*
X33053480Y-31739609D01*
X33313780Y-31977685D01*
X33590940Y-32170150D01*
X33889397Y-32319164D01*
X34213590Y-32426886D01*
X34567956Y-32495477D01*
X34619920Y-32502043D01*
X34765716Y-32513299D01*
X34916569Y-32511139D01*
X35093147Y-32495162D01*
X35116383Y-32492378D01*
X35468737Y-32424952D01*
X35800757Y-32312958D01*
X36109164Y-32159260D01*
X36390685Y-31966721D01*
X36642041Y-31738205D01*
X36859958Y-31476575D01*
X37041160Y-31184694D01*
X37182369Y-30865425D01*
X37257134Y-30621397D01*
X37287316Y-30460725D01*
X37306966Y-30268705D01*
X37315930Y-30060714D01*
X37314049Y-29852128D01*
X37301168Y-29658324D01*
X37277131Y-29494679D01*
X37268963Y-29458682D01*
X37166000Y-29140829D01*
X37020807Y-28835079D01*
X36838787Y-28549511D01*
X36625343Y-28292206D01*
X36385876Y-28071243D01*
X36295798Y-28003189D01*
X36130678Y-27898890D01*
X35934153Y-27796105D01*
X35725144Y-27703638D01*
X35522573Y-27630293D01*
X35446247Y-27607920D01*
X35278820Y-27574897D01*
X35079206Y-27554469D01*
X34863121Y-27546660D01*
X34646282Y-27551497D01*
X34444405Y-27569003D01*
X34273208Y-27599205D01*
X34246791Y-27606011D01*
X33899297Y-27725659D01*
X33580632Y-27885121D01*
X33293209Y-28081609D01*
X33039444Y-28312339D01*
X32821752Y-28574524D01*
X32642548Y-28865378D01*
X32504248Y-29182116D01*
X32409266Y-29521951D01*
X32369959Y-29771059D01*
X32357066Y-30116150D01*
X32336051Y-30116150D01*
X32337349Y-29894301D01*
X32354327Y-29671497D01*
G37*
G36*
X60631232Y-10806013D02*
G01*
X60892981Y-10807814D01*
X61110543Y-10810778D01*
X61282518Y-10814873D01*
X61407505Y-10820068D01*
X61484105Y-10826333D01*
X61508979Y-10831726D01*
X61550666Y-10877940D01*
X61553571Y-10937552D01*
X61531340Y-10974607D01*
X61494720Y-10984509D01*
X61408316Y-10990594D01*
X61271866Y-10992868D01*
X61085111Y-10991337D01*
X60959268Y-10988839D01*
X60414014Y-10976252D01*
X60414014Y-11847848D01*
X60843133Y-11847848D01*
X61004911Y-11848526D01*
X61123193Y-11850985D01*
X61205322Y-11855864D01*
X61258640Y-11863804D01*
X61290489Y-11875442D01*
X61305673Y-11888118D01*
X61325355Y-11937041D01*
X61312402Y-11970750D01*
X61296307Y-11986535D01*
X61265957Y-11998254D01*
X61214086Y-12006682D01*
X61133430Y-12012592D01*
X61016722Y-12016760D01*
X60856698Y-12019960D01*
X60849863Y-12020070D01*
X60414014Y-12027027D01*
X60414014Y-14237838D01*
X59193594Y-14237838D01*
X59193594Y-10805406D01*
X60326697Y-10805406D01*
X60631232Y-10806013D01*
G37*
G36*
X54006807Y-14064737D02*
G01*
X54356407Y-14050693D01*
X54494986Y-14044247D01*
X54624688Y-14036633D01*
X54732247Y-14028735D01*
X54804397Y-14021436D01*
X54811854Y-14020369D01*
X54881963Y-14013540D01*
X54921078Y-14024840D01*
X54947432Y-14059647D01*
X54947889Y-14060498D01*
X54963714Y-14107545D01*
X54945226Y-14148105D01*
X54923996Y-14171016D01*
X54909361Y-14184429D01*
X54891597Y-14195468D01*
X54865861Y-14204407D01*
X54827308Y-14211525D01*
X54771093Y-14217097D01*
X54692372Y-14221400D01*
X54586301Y-14224710D01*
X54448035Y-14227305D01*
X54272731Y-14229460D01*
X54055543Y-14231452D01*
X53834132Y-14233226D01*
X53609344Y-14234536D01*
X53400441Y-14234891D01*
X53212885Y-14234345D01*
X53052138Y-14232954D01*
X52923661Y-14230772D01*
X52832916Y-14227854D01*
X52785364Y-14224255D01*
X52779656Y-14222632D01*
X52776474Y-14194660D01*
X52773464Y-14120061D01*
X52770669Y-14003063D01*
X52768138Y-13847889D01*
X52765915Y-13658764D01*
X52764046Y-13439914D01*
X52762578Y-13195564D01*
X52761556Y-12929939D01*
X52761027Y-12647264D01*
X52760961Y-12504672D01*
X52760961Y-10805406D01*
X54006807Y-10805406D01*
X54006807Y-14064737D01*
G37*
G36*
X56327428Y-200981207D02*
G01*
X56596124Y-201037199D01*
X56839956Y-201133286D01*
X57064662Y-201271732D01*
X57275982Y-201454799D01*
X57276671Y-201455487D01*
X57449056Y-201651417D01*
X57579962Y-201856502D01*
X57672343Y-202078375D01*
X57729150Y-202324666D01*
X57753336Y-202603007D01*
X57754670Y-202691091D01*
X57749032Y-202902353D01*
X57729249Y-203080316D01*
X57691821Y-203241408D01*
X57633246Y-203402054D01*
X57577007Y-203524633D01*
X57432501Y-203764179D01*
X57250933Y-203972641D01*
X57037324Y-204147482D01*
X56796696Y-204286163D01*
X56534069Y-204386148D01*
X56254463Y-204444899D01*
X55962900Y-204459877D01*
X55758875Y-204443565D01*
X55466562Y-204380666D01*
X55197763Y-204274634D01*
X55180644Y-204264246D01*
X55786587Y-204264246D01*
X55869220Y-204274508D01*
X55980843Y-204279410D01*
X56121524Y-204272798D01*
X56271218Y-204256380D01*
X56409880Y-204231863D01*
X56433099Y-204226484D01*
X56659264Y-204152163D01*
X56862666Y-204041928D01*
X57054549Y-203889294D01*
X57109565Y-203836254D01*
X57289726Y-203626028D01*
X57423375Y-203400724D01*
X57512346Y-203155791D01*
X57558476Y-202886679D01*
X57566367Y-202703804D01*
X57543912Y-202419746D01*
X57478287Y-202153031D01*
X57372104Y-201908256D01*
X57227973Y-201690018D01*
X57048507Y-201502913D01*
X56836316Y-201351537D01*
X56780836Y-201321047D01*
X56572169Y-201227984D01*
X56365228Y-201170326D01*
X56141339Y-201143634D01*
X56021772Y-201140516D01*
X55786587Y-201140141D01*
X55786587Y-204264246D01*
X55180644Y-204264246D01*
X54955873Y-204127854D01*
X54744285Y-203942710D01*
X54566395Y-203721585D01*
X54453910Y-203527069D01*
X54370077Y-203339618D01*
X54312901Y-203164542D01*
X54279259Y-202986037D01*
X54266031Y-202788303D01*
X54268656Y-202589390D01*
X54294091Y-202317622D01*
X54350342Y-202079348D01*
X54441580Y-201864752D01*
X54571974Y-201664015D01*
X54744991Y-201468031D01*
X54858936Y-201359774D01*
X54963886Y-201277465D01*
X55080815Y-201205972D01*
X55177476Y-201156010D01*
X55214008Y-201140141D01*
X55390367Y-201063532D01*
X55595587Y-201003418D01*
X55811993Y-200971392D01*
X56028129Y-200963046D01*
X56327428Y-200981207D01*
G37*
G36*
X32362616Y-92214458D02*
G01*
X32442590Y-91875278D01*
X32570423Y-91547058D01*
X32583306Y-91520234D01*
X32757346Y-91219961D01*
X32971441Y-90946619D01*
X33220439Y-90704366D01*
X33499193Y-90497362D01*
X33802552Y-90329766D01*
X34125368Y-90205737D01*
X34254532Y-90170291D01*
X34406537Y-90142544D01*
X34590408Y-90123275D01*
X34787764Y-90113226D01*
X34980227Y-90113140D01*
X35149418Y-90123758D01*
X35209843Y-90131704D01*
X35564520Y-90211467D01*
X35891348Y-90333255D01*
X36192997Y-90498418D01*
X36472135Y-90708306D01*
X36617098Y-90843363D01*
X36835836Y-91089043D01*
X37013310Y-91350077D01*
X37155314Y-91636359D01*
X37265564Y-91950651D01*
X37316335Y-92181195D01*
X37344845Y-92438860D01*
X37350396Y-92704714D01*
X37332292Y-92959827D01*
X37308150Y-93107847D01*
X37215515Y-93446975D01*
X37082969Y-93757498D01*
X36907338Y-94045420D01*
X36685445Y-94316744D01*
X36647362Y-94357018D01*
X36386145Y-94596514D01*
X36106618Y-94789845D01*
X35803812Y-94939913D01*
X35472758Y-95049621D01*
X35453678Y-95054530D01*
X35217869Y-95100454D01*
X34964794Y-95125656D01*
X34714477Y-95129084D01*
X34486943Y-95109686D01*
X34465896Y-95106399D01*
X34122251Y-95025488D01*
X33795108Y-94899758D01*
X33489410Y-94732553D01*
X33210098Y-94527219D01*
X32962114Y-94287101D01*
X32750401Y-94015543D01*
X32673705Y-93893293D01*
X32517350Y-93577083D01*
X32407867Y-93245911D01*
X32345452Y-92904959D01*
X32334267Y-92649850D01*
X32363349Y-92649850D01*
X32366810Y-92813573D01*
X32376797Y-92946682D01*
X32395678Y-93069243D01*
X32425821Y-93201322D01*
X32430656Y-93220107D01*
X32543242Y-93556218D01*
X32698448Y-93868725D01*
X32892830Y-94154109D01*
X33122946Y-94408848D01*
X33385351Y-94629423D01*
X33676601Y-94812311D01*
X33993252Y-94953992D01*
X34187147Y-95015886D01*
X34532853Y-95084923D01*
X34884572Y-95103783D01*
X35243689Y-95072526D01*
X35298283Y-95063518D01*
X35613513Y-94983464D01*
X35920519Y-94857449D01*
X36211795Y-94690359D01*
X36479835Y-94487077D01*
X36717131Y-94252490D01*
X36893744Y-94025240D01*
X37070692Y-93720189D01*
X37201708Y-93397365D01*
X37286307Y-93061814D01*
X37324000Y-92718583D01*
X37314300Y-92372716D01*
X37256720Y-92029260D01*
X37150772Y-91693260D01*
X37125022Y-91630415D01*
X36978527Y-91347708D01*
X36788888Y-91080264D01*
X36563094Y-90834827D01*
X36308133Y-90618141D01*
X36030995Y-90436950D01*
X35748071Y-90301677D01*
X35528581Y-90226419D01*
X35309432Y-90176298D01*
X35069445Y-90146848D01*
X34986676Y-90141170D01*
X34634722Y-90145084D01*
X34294886Y-90196342D01*
X33970713Y-90292163D01*
X33665752Y-90429768D01*
X33383548Y-90606377D01*
X33127649Y-90819209D01*
X32901601Y-91065485D01*
X32708951Y-91342424D01*
X32553246Y-91647248D01*
X32438033Y-91977176D01*
X32391938Y-92174891D01*
X32379978Y-92264337D01*
X32370561Y-92387490D01*
X32364718Y-92527227D01*
X32363349Y-92649850D01*
X32334267Y-92649850D01*
X32330302Y-92559413D01*
X32362616Y-92214458D01*
G37*
G36*
X71835643Y-200975336D02*
G01*
X71868874Y-201004638D01*
X71879387Y-201018720D01*
X71887898Y-201040992D01*
X71894542Y-201076173D01*
X71899454Y-201128981D01*
X71902769Y-201204136D01*
X71904624Y-201306354D01*
X71905151Y-201440355D01*
X71904488Y-201610857D01*
X71902768Y-201822578D01*
X71900128Y-202080236D01*
X71900005Y-202091575D01*
X71897015Y-202352719D01*
X71894057Y-202568541D01*
X71890839Y-202744571D01*
X71887072Y-202886338D01*
X71882463Y-202999369D01*
X71876722Y-203089194D01*
X71869559Y-203161341D01*
X71860683Y-203221339D01*
X71849802Y-203274717D01*
X71836626Y-203327003D01*
X71834632Y-203334367D01*
X71737175Y-203605250D01*
X71603143Y-203842094D01*
X71435230Y-204043171D01*
X71236128Y-204206750D01*
X71008531Y-204331103D01*
X70755130Y-204414500D01*
X70478620Y-204455213D01*
X70181692Y-204451512D01*
X70107044Y-204443744D01*
X69846367Y-204388401D01*
X69605189Y-204290133D01*
X69388914Y-204152702D01*
X69202941Y-203979870D01*
X69052672Y-203775399D01*
X68996170Y-203669970D01*
X68958182Y-203588102D01*
X68926443Y-203511586D01*
X68900397Y-203435003D01*
X68879483Y-203352933D01*
X68863143Y-203259956D01*
X68850819Y-203150654D01*
X68841951Y-203019605D01*
X68835981Y-202861391D01*
X68832349Y-202670592D01*
X68830497Y-202441787D01*
X68829866Y-202169558D01*
X68829830Y-202056793D01*
X68829830Y-200987588D01*
X70049877Y-200987588D01*
X70056420Y-202621172D01*
X70062963Y-204254755D01*
X70418919Y-204254747D01*
X70774875Y-204254738D01*
X70972723Y-204160275D01*
X71175557Y-204039211D01*
X71340948Y-203885874D01*
X71473863Y-203695318D01*
X71510711Y-203624930D01*
X71551982Y-203539431D01*
X71586301Y-203463399D01*
X71614341Y-203391182D01*
X71636775Y-203317131D01*
X71654277Y-203235594D01*
X71667519Y-203140921D01*
X71677176Y-203027461D01*
X71683920Y-202889565D01*
X71688424Y-202721580D01*
X71691361Y-202517858D01*
X71693405Y-202272746D01*
X71694618Y-202081227D01*
X71696340Y-201820571D01*
X71698184Y-201606116D01*
X71700364Y-201433211D01*
X71703097Y-201297207D01*
X71706597Y-201193452D01*
X71711080Y-201117298D01*
X71716762Y-201064094D01*
X71723857Y-201029189D01*
X71732582Y-201007934D01*
X71743152Y-200995678D01*
X71744962Y-200994290D01*
X71795707Y-200965769D01*
X71835643Y-200975336D01*
G37*
G36*
X47312939Y-200984258D02*
G01*
X47491654Y-201021658D01*
X47668533Y-201083232D01*
X47817930Y-201151319D01*
X48058929Y-201297388D01*
X48264863Y-201479141D01*
X48434097Y-201693944D01*
X48564995Y-201939165D01*
X48655925Y-202212171D01*
X48705251Y-202510328D01*
X48710964Y-202589848D01*
X48704855Y-202891050D01*
X48655259Y-203178052D01*
X48564658Y-203446288D01*
X48435533Y-203691193D01*
X48270369Y-203908199D01*
X48071646Y-204092743D01*
X47841848Y-204240257D01*
X47803003Y-204259807D01*
X47518614Y-204371624D01*
X47222489Y-204438581D01*
X46923807Y-204459134D01*
X46709710Y-204443984D01*
X46418188Y-204380974D01*
X46149597Y-204274375D01*
X46132915Y-204264246D01*
X46735136Y-204264246D01*
X46817768Y-204274508D01*
X46929060Y-204279404D01*
X47069390Y-204272856D01*
X47218676Y-204256569D01*
X47356835Y-204232246D01*
X47380623Y-204226747D01*
X47636998Y-204139195D01*
X47869078Y-204008030D01*
X48073473Y-203835992D01*
X48246797Y-203625823D01*
X48359316Y-203435046D01*
X48439567Y-203242351D01*
X48489602Y-203038071D01*
X48512386Y-202808221D01*
X48514540Y-202702790D01*
X48495736Y-202417830D01*
X48437081Y-202161782D01*
X48336543Y-201929561D01*
X48192087Y-201716085D01*
X48063213Y-201574554D01*
X47864455Y-201404219D01*
X47655445Y-201278696D01*
X47428764Y-201195039D01*
X47176991Y-201150300D01*
X46970321Y-201140516D01*
X46735136Y-201140141D01*
X46735136Y-204264246D01*
X46132915Y-204264246D01*
X45907485Y-204127371D01*
X45695400Y-203943149D01*
X45516890Y-203724897D01*
X45375503Y-203475799D01*
X45274788Y-203199043D01*
X45260238Y-203142323D01*
X45221835Y-202912936D01*
X45209534Y-202667538D01*
X45223343Y-202426464D01*
X45259749Y-202223505D01*
X45354531Y-201951487D01*
X45491919Y-201705775D01*
X45669691Y-201488670D01*
X45885627Y-201302471D01*
X46137504Y-201149479D01*
X46159908Y-201140141D01*
X46404605Y-201038152D01*
X46510562Y-201008675D01*
X46632447Y-200988238D01*
X46783805Y-200974924D01*
X46887688Y-200969818D01*
X47116810Y-200967991D01*
X47312939Y-200984258D01*
G37*
G36*
X32248713Y-203749014D02*
G01*
X32351955Y-203746247D01*
X32940303Y-202317173D01*
X33045402Y-202062215D01*
X33144941Y-201821364D01*
X33237214Y-201598713D01*
X33320511Y-201398355D01*
X33393124Y-201224383D01*
X33453344Y-201080890D01*
X33499462Y-200971971D01*
X33529770Y-200901716D01*
X33542560Y-200874221D01*
X33542700Y-200874051D01*
X33554585Y-200894868D01*
X33585822Y-200957536D01*
X33634400Y-201057757D01*
X33698311Y-201191234D01*
X33775545Y-201353671D01*
X33864095Y-201540771D01*
X33961950Y-201748237D01*
X34067101Y-201971771D01*
X34177540Y-202207078D01*
X34291257Y-202449860D01*
X34406244Y-202695821D01*
X34520490Y-202940663D01*
X34631988Y-203180089D01*
X34738727Y-203409803D01*
X34838700Y-203625509D01*
X34929896Y-203822908D01*
X35010307Y-203997704D01*
X35077924Y-204145601D01*
X35130737Y-204262301D01*
X35166738Y-204343507D01*
X35182546Y-204381227D01*
X35182242Y-204393349D01*
X35167172Y-204402689D01*
X35131797Y-204409598D01*
X35070575Y-204414428D01*
X34977964Y-204417528D01*
X34848423Y-204419251D01*
X34676412Y-204419948D01*
X34570147Y-204420020D01*
X33942861Y-204420020D01*
X33743169Y-203987788D01*
X32454080Y-203987788D01*
X32382802Y-204169464D01*
X32320343Y-204308863D01*
X32261034Y-204398913D01*
X32203358Y-204440903D01*
X32145797Y-204436120D01*
X32104619Y-204405492D01*
X32072876Y-204368977D01*
X32064665Y-204353443D01*
X32076081Y-204327150D01*
X32106522Y-204267496D01*
X32150279Y-204185547D01*
X32168665Y-204151856D01*
X32218146Y-204060200D01*
X32244793Y-204004102D01*
X32250858Y-203974889D01*
X32238591Y-203963885D01*
X32217844Y-203962363D01*
X32133145Y-203945289D01*
X32079157Y-203899021D01*
X32064665Y-203846256D01*
X32075326Y-203796520D01*
X32113276Y-203766763D01*
X32153135Y-203758968D01*
X32552597Y-203758968D01*
X32555923Y-203772294D01*
X32580032Y-203782784D01*
X32629989Y-203790823D01*
X32710860Y-203796792D01*
X32827712Y-203801075D01*
X32985609Y-203804055D01*
X33174836Y-203806001D01*
X33662084Y-203809810D01*
X33367031Y-203174175D01*
X33289495Y-203008218D01*
X33218560Y-202858453D01*
X33157096Y-202730773D01*
X33107972Y-202631070D01*
X33074057Y-202565238D01*
X33058220Y-202539169D01*
X33057762Y-202538975D01*
X33046034Y-202561386D01*
X33018348Y-202623469D01*
X32977801Y-202717751D01*
X32927485Y-202836756D01*
X32870497Y-202973012D01*
X32809932Y-203119042D01*
X32748883Y-203267373D01*
X32690447Y-203410532D01*
X32637717Y-203541042D01*
X32593789Y-203651431D01*
X32561758Y-203734223D01*
X32552597Y-203758968D01*
X32153135Y-203758968D01*
X32187466Y-203752254D01*
X32248713Y-203749014D01*
G37*
G36*
X71376590Y-128385561D02*
G01*
X71411206Y-128274266D01*
X71456701Y-128128202D01*
X71510930Y-127954255D01*
X71571747Y-127759308D01*
X71637005Y-127550245D01*
X71703766Y-127336487D01*
X71991705Y-126414815D01*
X72260467Y-126414978D01*
X72529230Y-126415141D01*
X73098234Y-128239252D01*
X73189900Y-128533045D01*
X73277301Y-128813038D01*
X73359238Y-129075393D01*
X73434509Y-129316271D01*
X73501914Y-129531834D01*
X73560252Y-129718244D01*
X73608322Y-129871662D01*
X73644924Y-129988249D01*
X73668856Y-130064167D01*
X73678918Y-130095577D01*
X73679040Y-130095923D01*
X73673631Y-130109559D01*
X73641339Y-130118290D01*
X73575752Y-130122636D01*
X73470458Y-130123118D01*
X73365760Y-130121348D01*
X73040678Y-130114215D01*
X72910573Y-129694695D01*
X72780467Y-129275176D01*
X71743064Y-129275176D01*
X71607372Y-129701051D01*
X71471680Y-130126927D01*
X71155059Y-130126927D01*
X71034905Y-130125780D01*
X70935696Y-130122648D01*
X70867077Y-130117996D01*
X70838693Y-130112288D01*
X70838439Y-130111676D01*
X70845784Y-130083511D01*
X70866102Y-130015321D01*
X70896820Y-129915499D01*
X70935365Y-129792437D01*
X70965566Y-129697144D01*
X71008077Y-129562602D01*
X71044550Y-129445215D01*
X71072407Y-129353439D01*
X71089070Y-129295732D01*
X71092693Y-129280163D01*
X71070570Y-129267728D01*
X71017278Y-129262464D01*
X71016417Y-129262463D01*
X70940141Y-129262463D01*
X70940141Y-128652253D01*
X71294173Y-128652253D01*
X71303984Y-128620471D01*
X71938139Y-128620471D01*
X71944940Y-128634027D01*
X71981115Y-128643381D01*
X72052585Y-128649120D01*
X72165275Y-128651833D01*
X72258220Y-128652253D01*
X72590148Y-128652253D01*
X72567340Y-128582333D01*
X72552329Y-128535334D01*
X72525199Y-128449444D01*
X72488986Y-128334312D01*
X72446726Y-128199586D01*
X72413329Y-128092893D01*
X72369395Y-127954475D01*
X72329633Y-127833049D01*
X72296865Y-127736933D01*
X72273913Y-127674444D01*
X72264502Y-127654240D01*
X72251977Y-127671314D01*
X72227352Y-127730110D01*
X72193160Y-127823650D01*
X72151931Y-127944956D01*
X72106200Y-128087050D01*
X72098432Y-128111898D01*
X72052015Y-128260675D01*
X72010306Y-128393782D01*
X71975828Y-128503214D01*
X71951102Y-128580970D01*
X71938651Y-128619046D01*
X71938139Y-128620471D01*
X71303984Y-128620471D01*
X71355000Y-128455206D01*
X71376590Y-128385561D01*
G37*
G36*
X43938339Y-204242042D02*
G01*
X44254217Y-204242042D01*
X44390105Y-204239605D01*
X44520574Y-204232987D01*
X44630002Y-204223226D01*
X44697980Y-204212523D01*
X44804119Y-204199515D01*
X44871823Y-204217936D01*
X44900150Y-204267364D01*
X44899376Y-204302745D01*
X44893161Y-204330395D01*
X44880289Y-204353300D01*
X44856329Y-204371905D01*
X44816852Y-204386659D01*
X44757426Y-204398008D01*
X44673622Y-204406399D01*
X44561009Y-204412280D01*
X44415156Y-204416099D01*
X44231634Y-204418301D01*
X44006010Y-204419335D01*
X43741292Y-204419646D01*
X42717918Y-204420020D01*
X42717918Y-200987588D01*
X43938339Y-200987588D01*
X43938339Y-204242042D01*
G37*
G36*
X52436787Y-86980422D02*
G01*
X52676140Y-86982347D01*
X52872206Y-86988402D01*
X53032454Y-86999621D01*
X53164353Y-87017038D01*
X53275373Y-87041688D01*
X53372982Y-87074605D01*
X53464652Y-87116824D01*
X53480002Y-87124905D01*
X53659264Y-87246749D01*
X53815782Y-87404086D01*
X53945043Y-87588082D01*
X54042534Y-87789908D01*
X54103740Y-88000733D01*
X54124147Y-88211724D01*
X54110951Y-88359310D01*
X54093821Y-88451664D01*
X54078063Y-88529645D01*
X54068930Y-88569069D01*
X54069970Y-88599069D01*
X54094106Y-88633082D01*
X54148203Y-88677873D01*
X54239125Y-88740205D01*
X54249564Y-88747047D01*
X54386508Y-88848619D01*
X54536266Y-88979629D01*
X54685868Y-89127065D01*
X54822343Y-89277913D01*
X54932722Y-89419161D01*
X54960463Y-89460284D01*
X55129194Y-89767451D01*
X55250090Y-90086041D01*
X55323690Y-90411802D01*
X55350534Y-90740481D01*
X55331162Y-91067826D01*
X55266112Y-91389584D01*
X55155924Y-91701504D01*
X55001138Y-91999333D01*
X54802293Y-92278818D01*
X54571732Y-92524721D01*
X54307751Y-92738853D01*
X54017337Y-92913775D01*
X53707581Y-93046143D01*
X53385577Y-93132614D01*
X53231332Y-93156531D01*
X53135643Y-93164726D01*
X53000779Y-93171933D01*
X52838412Y-93177754D01*
X52660214Y-93181788D01*
X52477858Y-93183638D01*
X52436787Y-93183713D01*
X51871071Y-93183784D01*
X51871071Y-92174069D01*
X52888089Y-92174069D01*
X53065169Y-92157611D01*
X53188834Y-92138717D01*
X53323952Y-92107039D01*
X53411699Y-92079647D01*
X53647795Y-91967664D01*
X53856332Y-91815382D01*
X54032748Y-91627853D01*
X54172482Y-91410131D01*
X54270972Y-91167269D01*
X54286860Y-91110155D01*
X54330782Y-90854780D01*
X54327281Y-90610392D01*
X54275588Y-90369278D01*
X54191761Y-90158159D01*
X54072268Y-89959137D01*
X53916779Y-89780091D01*
X53733601Y-89626560D01*
X53531038Y-89504084D01*
X53317397Y-89418201D01*
X53100983Y-89374450D01*
X53009874Y-89369970D01*
X52888089Y-89369970D01*
X52888089Y-92174069D01*
X51871071Y-92174069D01*
X51871071Y-88174975D01*
X52888089Y-88174975D01*
X52889139Y-88268038D01*
X52894759Y-88321310D01*
X52908651Y-88345843D01*
X52934518Y-88352690D01*
X52947711Y-88352953D01*
X53011907Y-88334625D01*
X53048827Y-88307105D01*
X53093919Y-88227283D01*
X53097872Y-88143893D01*
X53062417Y-88071466D01*
X53016478Y-88035788D01*
X52953529Y-88006820D01*
X52915372Y-88004401D01*
X52895861Y-88035193D01*
X52888852Y-88105858D01*
X52888089Y-88174975D01*
X51871071Y-88174975D01*
X51871071Y-86979980D01*
X52436787Y-86980422D01*
G37*
G36*
X40481503Y-180611841D02*
G01*
X40532503Y-180643083D01*
X40578249Y-180707846D01*
X40587126Y-180785721D01*
X40564141Y-180862055D01*
X40514302Y-180922193D01*
X40442616Y-180951484D01*
X40426813Y-180952353D01*
X40401486Y-180946777D01*
X40386971Y-180922885D01*
X40380369Y-180869932D01*
X40378780Y-180777172D01*
X40378779Y-180774375D01*
X40380284Y-180680530D01*
X40386732Y-180626750D01*
X40401024Y-180602288D01*
X40426058Y-180596399D01*
X40426813Y-180596397D01*
X40481503Y-180611841D01*
G37*
G36*
X36081882Y-129516717D02*
G01*
X34785186Y-129516717D01*
X34785186Y-129720121D01*
X36107308Y-129720121D01*
X36107308Y-130330331D01*
X34785186Y-130330331D01*
X34785186Y-130632758D01*
X34787989Y-130793234D01*
X34797501Y-130918259D01*
X34815376Y-131022980D01*
X34836272Y-131100584D01*
X34931541Y-131324450D01*
X35070445Y-131524611D01*
X35250000Y-131697669D01*
X35467222Y-131840227D01*
X35501873Y-131858267D01*
X35633272Y-131914498D01*
X35780942Y-131961807D01*
X35925057Y-131994776D01*
X36045790Y-132007991D01*
X36050101Y-132008033D01*
X36132733Y-132008409D01*
X36132733Y-132618619D01*
X35948399Y-132617219D01*
X35823203Y-132609118D01*
X35683340Y-132589467D01*
X35577864Y-132567043D01*
X35316905Y-132475664D01*
X35065403Y-132343751D01*
X34835495Y-132179019D01*
X34639315Y-131989184D01*
X34604682Y-131948257D01*
X34500351Y-131802451D01*
X34400113Y-131630305D01*
X34312259Y-131448575D01*
X34245080Y-131274018D01*
X34212995Y-131156657D01*
X34197148Y-131052036D01*
X34184769Y-130914224D01*
X34177176Y-130760839D01*
X34175417Y-130654505D01*
X34174975Y-130330331D01*
X33946147Y-130330331D01*
X33946147Y-129720121D01*
X34174975Y-129720121D01*
X34174975Y-128906507D01*
X36081882Y-128906507D01*
X36081882Y-129516717D01*
G37*
G36*
X69134935Y-64656457D02*
G01*
X70050251Y-64656457D01*
X70050251Y-63842843D01*
X70660461Y-63842843D01*
X70660461Y-67554955D01*
X70050251Y-67554955D01*
X70050251Y-65266667D01*
X69134935Y-65266667D01*
X69134935Y-67554955D01*
X68524725Y-67554955D01*
X68524725Y-65266667D01*
X68295896Y-65266667D01*
X68295896Y-64656457D01*
X68524725Y-64656457D01*
X68524725Y-63842843D01*
X69134935Y-63842843D01*
X69134935Y-64656457D01*
G37*
G36*
X67948220Y-49191551D02*
G01*
X68054180Y-48756814D01*
X68201934Y-48336259D01*
X68390023Y-47932926D01*
X68616987Y-47549855D01*
X68881370Y-47190087D01*
X69181711Y-46856661D01*
X69516554Y-46552619D01*
X69884439Y-46280999D01*
X70283907Y-46044842D01*
X70713501Y-45847189D01*
X70813013Y-45808762D01*
X71146982Y-45697405D01*
X71473810Y-45617153D01*
X71808299Y-45565443D01*
X72165246Y-45539712D01*
X72389526Y-45535680D01*
X72872262Y-45558583D01*
X73336530Y-45628615D01*
X73784052Y-45746327D01*
X74216553Y-45912272D01*
X74635753Y-46127005D01*
X75033634Y-46384097D01*
X75161033Y-46483254D01*
X75309129Y-46611606D01*
X75467762Y-46759141D01*
X75626774Y-46915846D01*
X75776007Y-47071708D01*
X75905303Y-47216712D01*
X76004503Y-47340847D01*
X76005157Y-47341742D01*
X76273835Y-47750224D01*
X76494382Y-48174664D01*
X76667432Y-48616607D01*
X76793620Y-49077594D01*
X76853493Y-49406191D01*
X76873878Y-49598190D01*
X76884949Y-49822527D01*
X76887061Y-50065349D01*
X76880569Y-50312803D01*
X76865831Y-50551034D01*
X76843202Y-50766190D01*
X76814113Y-50939440D01*
X76688998Y-51406744D01*
X76520072Y-51851069D01*
X76309715Y-52270122D01*
X76060307Y-52661612D01*
X75774230Y-53023248D01*
X75453865Y-53352737D01*
X75101592Y-53647790D01*
X74719793Y-53906113D01*
X74310848Y-54125416D01*
X73877138Y-54303406D01*
X73421044Y-54437793D01*
X73114014Y-54500625D01*
X72968831Y-54519648D01*
X72788602Y-54534630D01*
X72588003Y-54545142D01*
X72381712Y-54550752D01*
X72184406Y-54551029D01*
X72010760Y-54545543D01*
X71895869Y-54536389D01*
X71479945Y-54466976D01*
X71060005Y-54355372D01*
X70647333Y-54205859D01*
X70253209Y-54022720D01*
X69888918Y-53810237D01*
X69770571Y-53729741D01*
X69621761Y-53614704D01*
X69453616Y-53468808D01*
X69276463Y-53302380D01*
X69100627Y-53125749D01*
X68936435Y-52949242D01*
X68794214Y-52783188D01*
X68696668Y-52655656D01*
X68590605Y-52493339D01*
X68477618Y-52298973D01*
X68364968Y-52086880D01*
X68259914Y-51871381D01*
X68169719Y-51666800D01*
X68101643Y-51487457D01*
X68096363Y-51471558D01*
X67971480Y-51011514D01*
X67895683Y-50550452D01*
X67867512Y-50091410D01*
X67870826Y-50007834D01*
X67896671Y-50007834D01*
X67917685Y-50480209D01*
X67987829Y-50947751D01*
X68107104Y-51406600D01*
X68128672Y-51472765D01*
X68300939Y-51909315D01*
X68515756Y-52320744D01*
X68770211Y-52704712D01*
X69061392Y-53058879D01*
X69386386Y-53380903D01*
X69742281Y-53668445D01*
X70126163Y-53919163D01*
X70535121Y-54130716D01*
X70966241Y-54300765D01*
X71416612Y-54426968D01*
X71883321Y-54506984D01*
X71907681Y-54509804D01*
X72087650Y-54522724D01*
X72301641Y-54526239D01*
X72533816Y-54520947D01*
X72768341Y-54507452D01*
X72989379Y-54486353D01*
X73157993Y-54462349D01*
X73612360Y-54358900D01*
X74049665Y-54209212D01*
X74466824Y-54015934D01*
X74860757Y-53781719D01*
X75228380Y-53509217D01*
X75566612Y-53201080D01*
X75872372Y-52859957D01*
X76142576Y-52488501D01*
X76374143Y-52089363D01*
X76563990Y-51665193D01*
X76632827Y-51473374D01*
X76707862Y-51235337D01*
X76764173Y-51023387D01*
X76804581Y-50821325D01*
X76831910Y-50612953D01*
X76848984Y-50382072D01*
X76856613Y-50189390D01*
X76856899Y-49813224D01*
X76833135Y-49469477D01*
X76783231Y-49144704D01*
X76705101Y-48825461D01*
X76596655Y-48498303D01*
X76592039Y-48485886D01*
X76401148Y-48045266D01*
X76168558Y-47632481D01*
X75896511Y-47249774D01*
X75587251Y-46899388D01*
X75243018Y-46583563D01*
X74866055Y-46304543D01*
X74458604Y-46064569D01*
X74022907Y-45865884D01*
X73940341Y-45834188D01*
X73612777Y-45724633D01*
X73293535Y-45645428D01*
X72969186Y-45594486D01*
X72626305Y-45569722D01*
X72251466Y-45569047D01*
X72236837Y-45569457D01*
X72034243Y-45576975D01*
X71868841Y-45587385D01*
X71726994Y-45602066D01*
X71595066Y-45622396D01*
X71474075Y-45646545D01*
X71011011Y-45770137D01*
X70575374Y-45934807D01*
X70161295Y-46143195D01*
X69762911Y-46397942D01*
X69694295Y-46447540D01*
X69562670Y-46553220D01*
X69410972Y-46689490D01*
X69249299Y-46846009D01*
X69087749Y-47012436D01*
X68936420Y-47178427D01*
X68805411Y-47333642D01*
X68721598Y-47443696D01*
X68622920Y-47593610D01*
X68516266Y-47774846D01*
X68408568Y-47973889D01*
X68306757Y-48177223D01*
X68217764Y-48371335D01*
X68148521Y-48542709D01*
X68128419Y-48600301D01*
X68002038Y-49064021D01*
X67924789Y-49534485D01*
X67896671Y-50007834D01*
X67870826Y-50007834D01*
X67885511Y-49637430D01*
X67948220Y-49191551D01*
G37*
G36*
X39094785Y-203759564D02*
G01*
X39156972Y-203754099D01*
X39234635Y-203756875D01*
X39323624Y-203761898D01*
X39920039Y-202311368D01*
X40025666Y-202055471D01*
X40125899Y-201814569D01*
X40219045Y-201592608D01*
X40303406Y-201393536D01*
X40377290Y-201221301D01*
X40439000Y-201079851D01*
X40486842Y-200973132D01*
X40519121Y-200905091D01*
X40534142Y-200879678D01*
X40534747Y-200879719D01*
X40548588Y-200905791D01*
X40581537Y-200973633D01*
X40631578Y-201078882D01*
X40696697Y-201217174D01*
X40774879Y-201384145D01*
X40864109Y-201575434D01*
X40962373Y-201786675D01*
X41067656Y-202013505D01*
X41177943Y-202251561D01*
X41291219Y-202496480D01*
X41405470Y-202743898D01*
X41518682Y-202989452D01*
X41628838Y-203228777D01*
X41733925Y-203457512D01*
X41831929Y-203671291D01*
X41920833Y-203865753D01*
X41998624Y-204036532D01*
X42063286Y-204179267D01*
X42112806Y-204289592D01*
X42145168Y-204363146D01*
X42158357Y-204395565D01*
X42158559Y-204396562D01*
X42134057Y-204403581D01*
X42064234Y-204409620D01*
X41954613Y-204414470D01*
X41810719Y-204417922D01*
X41638075Y-204419766D01*
X41539004Y-204420020D01*
X40919450Y-204420020D01*
X40722022Y-203987548D01*
X40075662Y-203994024D01*
X39429301Y-204000501D01*
X39357027Y-204176882D01*
X39292847Y-204315196D01*
X39233152Y-204404358D01*
X39176421Y-204445710D01*
X39121132Y-204440594D01*
X39087168Y-204414935D01*
X39064594Y-204383788D01*
X39060830Y-204345714D01*
X39078267Y-204290218D01*
X39119296Y-204206803D01*
X39145646Y-204158174D01*
X39196180Y-204064742D01*
X39223496Y-204007015D01*
X39229388Y-203976424D01*
X39215648Y-203964398D01*
X39186601Y-203962363D01*
X39118855Y-203944278D01*
X39065192Y-203899744D01*
X39039838Y-203843343D01*
X39042428Y-203814588D01*
X39059199Y-203781521D01*
X39519110Y-203781521D01*
X39599345Y-203791596D01*
X39666479Y-203796967D01*
X39765546Y-203801003D01*
X39887549Y-203803736D01*
X40023494Y-203805199D01*
X40164387Y-203805424D01*
X40301233Y-203804444D01*
X40425038Y-203802291D01*
X40526806Y-203798998D01*
X40597543Y-203794597D01*
X40628254Y-203789120D01*
X40628796Y-203787884D01*
X40611946Y-203748953D01*
X40578034Y-203674192D01*
X40530409Y-203570733D01*
X40472415Y-203445707D01*
X40407400Y-203306244D01*
X40338709Y-203159476D01*
X40269690Y-203012533D01*
X40203689Y-202872547D01*
X40144051Y-202746649D01*
X40094124Y-202641969D01*
X40057254Y-202565639D01*
X40036787Y-202524790D01*
X40033757Y-202519890D01*
X40023216Y-202544061D01*
X39996135Y-202609178D01*
X39955053Y-202709050D01*
X39902509Y-202837487D01*
X39841042Y-202988296D01*
X39773846Y-203153673D01*
X39519110Y-203781521D01*
X39059199Y-203781521D01*
X39060739Y-203778485D01*
X39094785Y-203759564D01*
G37*
G36*
X41113789Y-156549736D02*
G01*
X41136021Y-156617315D01*
X41169813Y-156721785D01*
X41213300Y-156857341D01*
X41264617Y-157018179D01*
X41321899Y-157198495D01*
X41356170Y-157306707D01*
X41417767Y-157501294D01*
X41475956Y-157684880D01*
X41528558Y-157850609D01*
X41573394Y-157991627D01*
X41608287Y-158101080D01*
X41631058Y-158172112D01*
X41636942Y-158190241D01*
X41672389Y-158298299D01*
X40537087Y-158298299D01*
X40619102Y-158037688D01*
X40728278Y-157691169D01*
X40822783Y-157392078D01*
X40902986Y-157139269D01*
X40969256Y-156931593D01*
X41021961Y-156767903D01*
X41061470Y-156647051D01*
X41088150Y-156567891D01*
X41102372Y-156529274D01*
X41104981Y-156524850D01*
X41113789Y-156549736D01*
G37*
G36*
X30358639Y-112131293D02*
G01*
X30373756Y-111944874D01*
X30397935Y-111773067D01*
X30432930Y-111603839D01*
X30480497Y-111425158D01*
X30542388Y-111224992D01*
X30553372Y-111191283D01*
X30721118Y-110757911D01*
X30930666Y-110349276D01*
X31178819Y-109967509D01*
X31462383Y-109614739D01*
X31778162Y-109293096D01*
X32122962Y-109004711D01*
X32493587Y-108751714D01*
X32886842Y-108536235D01*
X33299533Y-108360404D01*
X33728464Y-108226351D01*
X34170440Y-108136207D01*
X34622267Y-108092101D01*
X35080748Y-108096163D01*
X35184257Y-108103912D01*
X35663280Y-108167440D01*
X36116207Y-108273019D01*
X36547624Y-108422149D01*
X36962119Y-108616332D01*
X37238739Y-108776177D01*
X37620336Y-109043201D01*
X37969106Y-109346349D01*
X38283236Y-109681916D01*
X38560913Y-110046196D01*
X38800326Y-110435482D01*
X38999660Y-110846071D01*
X39157103Y-111274255D01*
X39270843Y-111716328D01*
X39339067Y-112168586D01*
X39359961Y-112627322D01*
X39334829Y-113061113D01*
X39258107Y-113543917D01*
X39135474Y-114004963D01*
X38966575Y-114445086D01*
X38751055Y-114865123D01*
X38488557Y-115265913D01*
X38289631Y-115520020D01*
X37971187Y-115861781D01*
X37620525Y-116166037D01*
X37241405Y-116431216D01*
X36837588Y-116655749D01*
X36412836Y-116838064D01*
X35970909Y-116976591D01*
X35515569Y-117069759D01*
X35050576Y-117115998D01*
X34579691Y-117113736D01*
X34488356Y-117107577D01*
X34020158Y-117046484D01*
X33567661Y-116938599D01*
X33133507Y-116786277D01*
X32720339Y-116591871D01*
X32330797Y-116357736D01*
X31967524Y-116086226D01*
X31633163Y-115779694D01*
X31330355Y-115440495D01*
X31061742Y-115070982D01*
X30829966Y-114673509D01*
X30637669Y-114250431D01*
X30487493Y-113804102D01*
X30407280Y-113471390D01*
X30387527Y-113368033D01*
X30372686Y-113272822D01*
X30362084Y-113175714D01*
X30355047Y-113066666D01*
X30350902Y-112935634D01*
X30348974Y-112772575D01*
X30348578Y-112596096D01*
X30374927Y-112596096D01*
X30375291Y-112794390D01*
X30377261Y-112951688D01*
X30381495Y-113077838D01*
X30388651Y-113182686D01*
X30399387Y-113276080D01*
X30414363Y-113367866D01*
X30432701Y-113460561D01*
X30555920Y-113931973D01*
X30722669Y-114379378D01*
X30930727Y-114800645D01*
X31177871Y-115193645D01*
X31461880Y-115556248D01*
X31780531Y-115886323D01*
X32131603Y-116181741D01*
X32512873Y-116440372D01*
X32922121Y-116660086D01*
X33357123Y-116838753D01*
X33815658Y-116974243D01*
X34173157Y-117046161D01*
X34324915Y-117063500D01*
X34514241Y-117073943D01*
X34728436Y-117077789D01*
X34954802Y-117075334D01*
X35180641Y-117066876D01*
X35393255Y-117052712D01*
X35579946Y-117033138D01*
X35721085Y-117009939D01*
X36191079Y-116885640D01*
X36638869Y-116716577D01*
X37062117Y-116504341D01*
X37458484Y-116250523D01*
X37825633Y-115956715D01*
X38161227Y-115624507D01*
X38462926Y-115255492D01*
X38609370Y-115043872D01*
X38842224Y-114640893D01*
X39030171Y-114217829D01*
X39172831Y-113778997D01*
X39269825Y-113328715D01*
X39320773Y-112871302D01*
X39325294Y-112411076D01*
X39283009Y-111952355D01*
X39193538Y-111499456D01*
X39056500Y-111056698D01*
X38977655Y-110858256D01*
X38770293Y-110434965D01*
X38522104Y-110038880D01*
X38236228Y-109672578D01*
X37915806Y-109338638D01*
X37563979Y-109039635D01*
X37183888Y-108778149D01*
X36778673Y-108556756D01*
X36351476Y-108378034D01*
X35905437Y-108244561D01*
X35750707Y-108210079D01*
X35277887Y-108139050D01*
X34806550Y-108117917D01*
X34339938Y-108145758D01*
X33881293Y-108221647D01*
X33433857Y-108344663D01*
X33000873Y-108513880D01*
X32585582Y-108728375D01*
X32191227Y-108987224D01*
X31821049Y-109289504D01*
X31758098Y-109347643D01*
X31431911Y-109689009D01*
X31145773Y-110061380D01*
X30900278Y-110463681D01*
X30696019Y-110894839D01*
X30533592Y-111353779D01*
X30433271Y-111744345D01*
X30413942Y-111839368D01*
X30399379Y-111928139D01*
X30388922Y-112020319D01*
X30381909Y-112125570D01*
X30377677Y-112253553D01*
X30375565Y-112413929D01*
X30374927Y-112596096D01*
X30348578Y-112596096D01*
X30350831Y-112344357D01*
X30358639Y-112131293D01*
G37*
G36*
X74663684Y-200984783D02*
G01*
X74834941Y-200986213D01*
X74971289Y-200988434D01*
X75068121Y-200991413D01*
X75120828Y-200995122D01*
X75128979Y-200997058D01*
X75158290Y-201043179D01*
X75150497Y-201098572D01*
X75111582Y-201139246D01*
X75068739Y-201148989D01*
X74986133Y-201157102D01*
X74874843Y-201162845D01*
X74745949Y-201165478D01*
X74717488Y-201165566D01*
X74372573Y-201165566D01*
X74372573Y-204420020D01*
X73766600Y-204420020D01*
X73595957Y-204419338D01*
X73442489Y-204417420D01*
X73313429Y-204414466D01*
X73216013Y-204410670D01*
X73157475Y-204406231D01*
X73143677Y-204403070D01*
X73140716Y-204375339D01*
X73137920Y-204301096D01*
X73135333Y-204184676D01*
X73133000Y-204030419D01*
X73130968Y-203842660D01*
X73129281Y-203625739D01*
X73127984Y-203383992D01*
X73127123Y-203121757D01*
X73126742Y-202843372D01*
X73126727Y-202775843D01*
X73126727Y-201165566D01*
X72916967Y-201166070D01*
X72788346Y-201169716D01*
X72651485Y-201178802D01*
X72535677Y-201191375D01*
X72534111Y-201191600D01*
X72404818Y-201202838D01*
X72318650Y-201192058D01*
X72272495Y-201158406D01*
X72262263Y-201116934D01*
X72263010Y-201092408D01*
X72267837Y-201071574D01*
X72280616Y-201054087D01*
X72305223Y-201039605D01*
X72345533Y-201027784D01*
X72405420Y-201018280D01*
X72488759Y-201010751D01*
X72599424Y-201004853D01*
X72741291Y-201000242D01*
X72918234Y-200996575D01*
X73134127Y-200993509D01*
X73392846Y-200990700D01*
X73698265Y-200987805D01*
X73721739Y-200987588D01*
X73986546Y-200985546D01*
X74234879Y-200984419D01*
X74462127Y-200984175D01*
X74663684Y-200984783D01*
G37*
G36*
X40524975Y-181958375D02*
G01*
X40791493Y-182007930D01*
X41032465Y-182100724D01*
X41251507Y-182238571D01*
X41452237Y-182423284D01*
X41452466Y-182423532D01*
X41611533Y-182631147D01*
X41725954Y-182857005D01*
X41795852Y-183095232D01*
X41821347Y-183339955D01*
X41802563Y-183585301D01*
X41739621Y-183825396D01*
X41632645Y-184054367D01*
X41481756Y-184266340D01*
X41412527Y-184341621D01*
X41234182Y-184491837D01*
X41027046Y-184614655D01*
X40803901Y-184704519D01*
X40577528Y-184755876D01*
X40435986Y-184765974D01*
X40378779Y-184766167D01*
X40378779Y-181943500D01*
X40524975Y-181958375D01*
G37*
G36*
X36081882Y-66944745D02*
G01*
X34785186Y-66944745D01*
X34785186Y-67148149D01*
X36107308Y-67148149D01*
X36107308Y-67758359D01*
X34779531Y-67758359D01*
X34789048Y-68120671D01*
X34793285Y-68264581D01*
X34798671Y-68369734D01*
X34807398Y-68448212D01*
X34821659Y-68512098D01*
X34843649Y-68573475D01*
X34875560Y-68644427D01*
X34889439Y-68673674D01*
X35022416Y-68895796D01*
X35191731Y-69084348D01*
X35393096Y-69236340D01*
X35622221Y-69348782D01*
X35874818Y-69418685D01*
X35980181Y-69433926D01*
X36120020Y-69449150D01*
X36120020Y-70059360D01*
X36018319Y-70063191D01*
X35934543Y-70061387D01*
X35829687Y-70052617D01*
X35764973Y-70044356D01*
X35478511Y-69976466D01*
X35207427Y-69863121D01*
X34956808Y-69708663D01*
X34731739Y-69517435D01*
X34537304Y-69293779D01*
X34378590Y-69042039D01*
X34260680Y-68766557D01*
X34257514Y-68757020D01*
X34230437Y-68666886D01*
X34210718Y-68578492D01*
X34196648Y-68479244D01*
X34186525Y-68356551D01*
X34178640Y-68197818D01*
X34177355Y-68165166D01*
X34162263Y-67771071D01*
X33946147Y-67755435D01*
X33946147Y-67148149D01*
X34174975Y-67148149D01*
X34174975Y-66334535D01*
X36081882Y-66334535D01*
X36081882Y-66944745D01*
G37*
G36*
X62406298Y-13840790D02*
G01*
X62218811Y-13653472D01*
X62069793Y-13446003D01*
X62036595Y-13386086D01*
X61949166Y-13203182D01*
X61888415Y-13036551D01*
X61850457Y-12869445D01*
X61831407Y-12685115D01*
X61827256Y-12483484D01*
X61829361Y-12333992D01*
X61834849Y-12220924D01*
X61845549Y-12129878D01*
X61863287Y-12046451D01*
X61889891Y-11956240D01*
X61896855Y-11934844D01*
X62009676Y-11670274D01*
X62163039Y-11433700D01*
X62353241Y-11228058D01*
X62576577Y-11056284D01*
X62829343Y-10921315D01*
X63107833Y-10826087D01*
X63354446Y-10779509D01*
X63659989Y-10764786D01*
X63954151Y-10796658D01*
X64232562Y-10873704D01*
X64490849Y-10994504D01*
X64724642Y-11157636D01*
X64838044Y-11261698D01*
X64990021Y-11432516D01*
X65107974Y-11609081D01*
X65202525Y-11808846D01*
X65249040Y-11936837D01*
X65272962Y-12014781D01*
X65289550Y-12088705D01*
X65300090Y-12170711D01*
X65305866Y-12272904D01*
X65308163Y-12407387D01*
X65308409Y-12496197D01*
X65307672Y-12648897D01*
X65304419Y-12763671D01*
X65297082Y-12853433D01*
X65284097Y-12931098D01*
X65263897Y-13009581D01*
X65235025Y-13101468D01*
X65120407Y-13373516D01*
X64966103Y-13615033D01*
X64774825Y-13823280D01*
X64549284Y-13995518D01*
X64292191Y-14129007D01*
X64174465Y-14173191D01*
X63985109Y-14220930D01*
X63767378Y-14250061D01*
X63539525Y-14259859D01*
X63319806Y-14249600D01*
X63126475Y-14218562D01*
X63113158Y-14215277D01*
X62862114Y-14128349D01*
X62781274Y-14085286D01*
X63337938Y-14085286D01*
X63565516Y-14085286D01*
X63688499Y-14082025D01*
X63810761Y-14073376D01*
X63909934Y-14061041D01*
X63927828Y-14057719D01*
X64070059Y-14015992D01*
X64230510Y-13948837D01*
X64392239Y-13865045D01*
X64538308Y-13773411D01*
X64651777Y-13682726D01*
X64653577Y-13681003D01*
X64826633Y-13481958D01*
X64960575Y-13259646D01*
X65055838Y-13020098D01*
X65112856Y-12769345D01*
X65132065Y-12513417D01*
X65113900Y-12258346D01*
X65058796Y-12010161D01*
X64967187Y-11774895D01*
X64839509Y-11558577D01*
X64676196Y-11367239D01*
X64477685Y-11206912D01*
X64474985Y-11205131D01*
X64278680Y-11098360D01*
X64058502Y-11016487D01*
X63829727Y-10963381D01*
X63607632Y-10942913D01*
X63467053Y-10949750D01*
X63337938Y-10965041D01*
X63337938Y-14085286D01*
X62781274Y-14085286D01*
X62623613Y-14001301D01*
X62406298Y-13840790D01*
G37*
G36*
X31657858Y-129516717D02*
G01*
X30513714Y-129516717D01*
X30513714Y-129720121D01*
X31708709Y-129720121D01*
X31708709Y-130330331D01*
X30513714Y-130330331D01*
X30513714Y-132618619D01*
X29903504Y-132618619D01*
X29903504Y-130330331D01*
X29674675Y-130330331D01*
X29674675Y-129720121D01*
X29903504Y-129720121D01*
X29903504Y-128906507D01*
X31657858Y-128906507D01*
X31657858Y-129516717D01*
G37*
G36*
X31657858Y-66944745D02*
G01*
X30513714Y-66944745D01*
X30513714Y-67148149D01*
X31708709Y-67148149D01*
X31708709Y-67758359D01*
X30513714Y-67758359D01*
X30513714Y-70072072D01*
X29903504Y-70072072D01*
X29903504Y-67758359D01*
X29674675Y-67758359D01*
X29674675Y-67148149D01*
X29903504Y-67148149D01*
X29903504Y-66334535D01*
X31657858Y-66334535D01*
X31657858Y-66944745D01*
G37*
G36*
X23318319Y-170553354D02*
G01*
X23318319Y-169765166D01*
X17063664Y-169765166D01*
X17063664Y-157649950D01*
X21605024Y-157649950D01*
X21622366Y-158199592D01*
X21675730Y-158720055D01*
X21767121Y-159219961D01*
X21898546Y-159707930D01*
X22072011Y-160192583D01*
X22289521Y-160682540D01*
X22329785Y-160764495D01*
X22614205Y-161280342D01*
X22937781Y-161766039D01*
X23297941Y-162219889D01*
X23692112Y-162640196D01*
X24117720Y-163025263D01*
X24572194Y-163373394D01*
X25052960Y-163682891D01*
X25557446Y-163952059D01*
X26083078Y-164179201D01*
X26627284Y-164362620D01*
X27187491Y-164500619D01*
X27761126Y-164591502D01*
X28187288Y-164627142D01*
X28330891Y-164633548D01*
X28469493Y-164637800D01*
X28588603Y-164639575D01*
X28673731Y-164638554D01*
X28683084Y-164638118D01*
X28768834Y-164633621D01*
X28887075Y-164627645D01*
X29019504Y-164621107D01*
X29103141Y-164617057D01*
X29406956Y-164591434D01*
X29738922Y-164543988D01*
X30082918Y-164477914D01*
X30422824Y-164396405D01*
X30742518Y-164302655D01*
X30818819Y-164277190D01*
X31383463Y-164057581D01*
X31919359Y-163796028D01*
X32426528Y-163492517D01*
X32904989Y-163147037D01*
X33354762Y-162759575D01*
X33627185Y-162489964D01*
X34025743Y-162038380D01*
X34379995Y-161562015D01*
X34689556Y-161061715D01*
X34828114Y-160787523D01*
X38675276Y-160787523D01*
X38695611Y-160797881D01*
X38758067Y-160805737D01*
X38864824Y-160811204D01*
X39018057Y-160814393D01*
X39217485Y-160815416D01*
X39759695Y-160815416D01*
X39986243Y-160090791D01*
X40212790Y-159366167D01*
X41994018Y-159366167D01*
X42220565Y-160090791D01*
X42447113Y-160815416D01*
X42992288Y-160815416D01*
X43172197Y-160815162D01*
X43307379Y-160814058D01*
X43403955Y-160811595D01*
X43468045Y-160807260D01*
X43505773Y-160800543D01*
X43523260Y-160790932D01*
X43526628Y-160777916D01*
X43525198Y-160770921D01*
X43516232Y-160741558D01*
X43493018Y-160666575D01*
X43456465Y-160548893D01*
X43407484Y-160391433D01*
X43346985Y-160197113D01*
X43275878Y-159968854D01*
X43195072Y-159709577D01*
X43105479Y-159422200D01*
X43008007Y-159109643D01*
X42903568Y-158774828D01*
X42793070Y-158420674D01*
X42677425Y-158050100D01*
X42557542Y-157666027D01*
X42552523Y-157649950D01*
X46628986Y-157649950D01*
X46650855Y-158238665D01*
X46717160Y-158805403D01*
X46828952Y-159354710D01*
X46987280Y-159891130D01*
X47193195Y-160419210D01*
X47342597Y-160739140D01*
X47593089Y-161204187D01*
X47866413Y-161632169D01*
X48170779Y-162034727D01*
X48514400Y-162423498D01*
X48576834Y-162488564D01*
X48827857Y-162738842D01*
X49064753Y-162956179D01*
X49299892Y-163151034D01*
X49545645Y-163333864D01*
X49709910Y-163446529D01*
X50052044Y-163664425D01*
X50378959Y-163849739D01*
X50706438Y-164010197D01*
X51050263Y-164153524D01*
X51426217Y-164287445D01*
X51431010Y-164289034D01*
X51945096Y-164438509D01*
X52460096Y-164545627D01*
X52983171Y-164611157D01*
X53521481Y-164635868D01*
X54082188Y-164620531D01*
X54337338Y-164601338D01*
X54877283Y-164528465D01*
X55416212Y-164407173D01*
X55949064Y-164239731D01*
X56470780Y-164028411D01*
X56976297Y-163775483D01*
X57460557Y-163483217D01*
X57918497Y-163153883D01*
X58316425Y-162816233D01*
X58742936Y-162393454D01*
X59123268Y-161951035D01*
X59459207Y-161486227D01*
X59752537Y-160996275D01*
X60005045Y-160478430D01*
X60218517Y-159929940D01*
X60250034Y-159836537D01*
X60413007Y-159263302D01*
X60525860Y-158682325D01*
X60588534Y-158094797D01*
X60597351Y-157674395D01*
X71649924Y-157674395D01*
X71676139Y-158256039D01*
X71750390Y-158833711D01*
X71872422Y-159404122D01*
X72041985Y-159963984D01*
X72258823Y-160510011D01*
X72456877Y-160917118D01*
X72728595Y-161382505D01*
X73044283Y-161835059D01*
X73397438Y-162267360D01*
X73781557Y-162671992D01*
X74190136Y-163041535D01*
X74588689Y-163348865D01*
X75090556Y-163673875D01*
X75612675Y-163952680D01*
X76152923Y-164184743D01*
X76709180Y-164369523D01*
X77279325Y-164506482D01*
X77861236Y-164595080D01*
X78452793Y-164634780D01*
X79051874Y-164625040D01*
X79469090Y-164589148D01*
X80011035Y-164506149D01*
X80533971Y-164382340D01*
X81046339Y-164215162D01*
X81556578Y-164002055D01*
X81811000Y-163878762D01*
X82323134Y-163591516D01*
X82805326Y-163264397D01*
X83255861Y-162899831D01*
X83673027Y-162500242D01*
X84055110Y-162068054D01*
X84400394Y-161605692D01*
X84707166Y-161115580D01*
X84973711Y-160600144D01*
X85198317Y-160061806D01*
X85379269Y-159502993D01*
X85514852Y-158926128D01*
X85576476Y-158552553D01*
X85597140Y-158357494D01*
X85611580Y-158125179D01*
X85619795Y-157868819D01*
X85621787Y-157601626D01*
X85617554Y-157336812D01*
X85607097Y-157087590D01*
X85590415Y-156867171D01*
X85576476Y-156747348D01*
X85470175Y-156158868D01*
X85316648Y-155585001D01*
X85117334Y-155028672D01*
X84873668Y-154492807D01*
X84587087Y-153980331D01*
X84259029Y-153494168D01*
X83890930Y-153037244D01*
X83602244Y-152728339D01*
X83162979Y-152320684D01*
X82699544Y-151957275D01*
X82211222Y-151637748D01*
X81697299Y-151361741D01*
X81157059Y-151128891D01*
X80589787Y-150938835D01*
X79994766Y-150791211D01*
X79655633Y-150728009D01*
X79563174Y-150714573D01*
X79462284Y-150704087D01*
X79345716Y-150696253D01*
X79206219Y-150690775D01*
X79036544Y-150687354D01*
X78829443Y-150685692D01*
X78618619Y-150685441D01*
X78394949Y-150685889D01*
X78213944Y-150687088D01*
X78067421Y-150689530D01*
X77947196Y-150693703D01*
X77845083Y-150700100D01*
X77752899Y-150709208D01*
X77662460Y-150721519D01*
X77565581Y-150737523D01*
X77474475Y-150753950D01*
X76872892Y-150888043D01*
X76299706Y-151064143D01*
X75753896Y-151282782D01*
X75234441Y-151544491D01*
X74740319Y-151849800D01*
X74270509Y-152199240D01*
X73823989Y-152593342D01*
X73698508Y-152716263D01*
X73303245Y-153141988D01*
X72954809Y-153581237D01*
X72649837Y-154039369D01*
X72384966Y-154521744D01*
X72156833Y-155033719D01*
X72030471Y-155373835D01*
X71862017Y-155938497D01*
X71742610Y-156512336D01*
X71671996Y-157092065D01*
X71649924Y-157674395D01*
X60597351Y-157674395D01*
X60600969Y-157501912D01*
X60563104Y-156904861D01*
X60474881Y-156304837D01*
X60436831Y-156116244D01*
X60354573Y-155790369D01*
X60244563Y-155441363D01*
X60112627Y-155084285D01*
X59964590Y-154734194D01*
X59806276Y-154406150D01*
X59699391Y-154209735D01*
X59377961Y-153699379D01*
X59019399Y-153222645D01*
X58625612Y-152781085D01*
X58198508Y-152376250D01*
X57739996Y-152009690D01*
X57251982Y-151682957D01*
X56736375Y-151397603D01*
X56195081Y-151155177D01*
X55742597Y-150992467D01*
X55451379Y-150903480D01*
X55181232Y-150832165D01*
X54920991Y-150776902D01*
X54659493Y-150736072D01*
X54385571Y-150708053D01*
X54088061Y-150691225D01*
X53755797Y-150683969D01*
X53612713Y-150683384D01*
X53324685Y-150685096D01*
X53080534Y-150690186D01*
X52882208Y-150698582D01*
X52731657Y-150710214D01*
X52671972Y-150717656D01*
X52065398Y-150832376D01*
X51484253Y-150991108D01*
X50928217Y-151194014D01*
X50396970Y-151441258D01*
X49890192Y-151733002D01*
X49407562Y-152069408D01*
X48948760Y-152450639D01*
X48602282Y-152784290D01*
X48212934Y-153214537D01*
X47869995Y-153660544D01*
X47570309Y-154127511D01*
X47310718Y-154620635D01*
X47088066Y-155145117D01*
X46975392Y-155463364D01*
X46843786Y-155902636D01*
X46745699Y-156327641D01*
X46678777Y-156753250D01*
X46640662Y-157194334D01*
X46628986Y-157649950D01*
X42552523Y-157649950D01*
X42538633Y-157605456D01*
X41564333Y-154484485D01*
X40642194Y-154484485D01*
X39453288Y-158298299D01*
X38853254Y-158298299D01*
X38853254Y-159366167D01*
X38980381Y-159366167D01*
X39052899Y-159370787D01*
X39098928Y-159382601D01*
X39107508Y-159391854D01*
X39099987Y-159421913D01*
X39078762Y-159493872D01*
X39045837Y-159601268D01*
X39003216Y-159737638D01*
X38952906Y-159896518D01*
X38896910Y-160071444D01*
X38891392Y-160088586D01*
X38834944Y-160264829D01*
X38783996Y-160425764D01*
X38740555Y-160564901D01*
X38706628Y-160675749D01*
X38684222Y-160751818D01*
X38675343Y-160786618D01*
X38675276Y-160787523D01*
X34828114Y-160787523D01*
X34954043Y-160538321D01*
X35173073Y-159992677D01*
X35346262Y-159425627D01*
X35473226Y-158838013D01*
X35550806Y-158260161D01*
X35562207Y-158088012D01*
X35567903Y-157879518D01*
X35568226Y-157648025D01*
X35563507Y-157406882D01*
X35554076Y-157169433D01*
X35540264Y-156949025D01*
X35522402Y-156759006D01*
X35511538Y-156676066D01*
X35397688Y-156077831D01*
X35237523Y-155499883D01*
X35031587Y-154943337D01*
X34780423Y-154409307D01*
X34484575Y-153898909D01*
X34144585Y-153413255D01*
X33760998Y-152953461D01*
X33625693Y-152808379D01*
X33195274Y-152395199D01*
X32736356Y-152024014D01*
X32249687Y-151695219D01*
X31736014Y-151409213D01*
X31196086Y-151166391D01*
X30630652Y-150967152D01*
X30040460Y-150811891D01*
X29750951Y-150753533D01*
X29642297Y-150734220D01*
X29546692Y-150718982D01*
X29455934Y-150707331D01*
X29361822Y-150698779D01*
X29256154Y-150692839D01*
X29130730Y-150689023D01*
X28977347Y-150686843D01*
X28787804Y-150685812D01*
X28606807Y-150685488D01*
X28354208Y-150685894D01*
X28142869Y-150688279D01*
X27963214Y-150693558D01*
X27805664Y-150702646D01*
X27660639Y-150716458D01*
X27518563Y-150735910D01*
X27369856Y-150761916D01*
X27204941Y-150795392D01*
X27014239Y-150837254D01*
X27011160Y-150837944D01*
X26453842Y-150988553D01*
X25915129Y-151185033D01*
X25397286Y-151425097D01*
X24902577Y-151706463D01*
X24433265Y-152026845D01*
X23991616Y-152383960D01*
X23579894Y-152775524D01*
X23200363Y-153199252D01*
X22855287Y-153652860D01*
X22546931Y-154134065D01*
X22277559Y-154640580D01*
X22049435Y-155170124D01*
X21864824Y-155720410D01*
X21758112Y-156137138D01*
X21704398Y-156396315D01*
X21663871Y-156638363D01*
X21635108Y-156877363D01*
X21616684Y-157127398D01*
X21607173Y-157402549D01*
X21605024Y-157649950D01*
X17063664Y-157649950D01*
X17063664Y-150035035D01*
X49608209Y-150035035D01*
X49703554Y-150034660D01*
X49780892Y-150028411D01*
X49881793Y-150012649D01*
X49958295Y-149996703D01*
X50194470Y-149916369D01*
X50402387Y-149794405D01*
X50579854Y-149632843D01*
X50724680Y-149433717D01*
X50834672Y-149199058D01*
X50842623Y-149176740D01*
X50877301Y-149070364D01*
X50906278Y-148964186D01*
X50930224Y-148851970D01*
X50949811Y-148727481D01*
X50965706Y-148584484D01*
X50978581Y-148416745D01*
X50989105Y-148218028D01*
X50997948Y-147982099D01*
X51005779Y-147702723D01*
X51007188Y-147645045D01*
X51014792Y-147360843D01*
X51023202Y-147122198D01*
X51033032Y-146923819D01*
X51044895Y-146760414D01*
X51059405Y-146626690D01*
X51077175Y-146517355D01*
X51098818Y-146427117D01*
X51124949Y-146350683D01*
X51156180Y-146282762D01*
X51167544Y-146261612D01*
X51231418Y-146165965D01*
X51304505Y-146103196D01*
X51399342Y-146066519D01*
X51528463Y-146049149D01*
X51563631Y-146047202D01*
X51761701Y-146052817D01*
X51959489Y-146089595D01*
X52164415Y-146160096D01*
X52383896Y-146266878D01*
X52625353Y-146412500D01*
X52628427Y-146414502D01*
X52723110Y-146477250D01*
X52814228Y-146540238D01*
X52904820Y-146606203D01*
X52997927Y-146677879D01*
X53096588Y-146758004D01*
X53203843Y-146849312D01*
X53322733Y-146954539D01*
X53456297Y-147076422D01*
X53607575Y-147217696D01*
X53779608Y-147381098D01*
X53975434Y-147569362D01*
X54198094Y-147785225D01*
X54450628Y-148031423D01*
X54736076Y-148310691D01*
X54744145Y-148318595D01*
X54900018Y-148469849D01*
X55058320Y-148620865D01*
X55211667Y-148764782D01*
X55352672Y-148894742D01*
X55473950Y-149003884D01*
X55568113Y-149085348D01*
X55583184Y-149097833D01*
X55932316Y-149367682D01*
X56264591Y-149590716D01*
X56581343Y-149767605D01*
X56883909Y-149899018D01*
X57173621Y-149985627D01*
X57432883Y-150026567D01*
X57617218Y-150042497D01*
X57617218Y-149628229D01*
X74245446Y-149628229D01*
X75033634Y-149628229D01*
X75033634Y-146043244D01*
X76228629Y-146043244D01*
X76228629Y-149634068D01*
X76423729Y-149834552D01*
X76618829Y-150035035D01*
X82647424Y-150035035D01*
X82845034Y-149838585D01*
X83042643Y-149642134D01*
X83042643Y-145636437D01*
X82254455Y-145636437D01*
X82254455Y-149246847D01*
X77042243Y-149246847D01*
X77042243Y-145650275D01*
X76845792Y-145452665D01*
X76649342Y-145255055D01*
X74612842Y-145255055D01*
X74429144Y-145439988D01*
X74245446Y-145624920D01*
X74245446Y-149628229D01*
X57617218Y-149628229D01*
X57617218Y-149252706D01*
X57475278Y-149234972D01*
X57301875Y-149200988D01*
X57117382Y-149139284D01*
X56909961Y-149045832D01*
X56890549Y-149036122D01*
X56741157Y-148955500D01*
X56588953Y-148861886D01*
X56430041Y-148752081D01*
X56260528Y-148622886D01*
X56076519Y-148471099D01*
X55874118Y-148293522D01*
X55649431Y-148086954D01*
X55398563Y-147848195D01*
X55150951Y-147606855D01*
X54895167Y-147355733D01*
X54671722Y-147137300D01*
X54477076Y-146948216D01*
X54307684Y-146785141D01*
X54160004Y-146644733D01*
X54030494Y-146523652D01*
X53915609Y-146418557D01*
X53811809Y-146326108D01*
X53715550Y-146242963D01*
X53623288Y-146165783D01*
X53618845Y-146162126D01*
X53293121Y-145908412D01*
X52985583Y-145698899D01*
X52692507Y-145531897D01*
X52410167Y-145405717D01*
X52134840Y-145318673D01*
X51862802Y-145269074D01*
X51618172Y-145255055D01*
X51345122Y-145274162D01*
X51103155Y-145331893D01*
X50891693Y-145428861D01*
X50710159Y-145565681D01*
X50557973Y-145742969D01*
X50434558Y-145961337D01*
X50339334Y-146221401D01*
X50271725Y-146523776D01*
X50245516Y-146713547D01*
X50237302Y-146813821D01*
X50230068Y-146952973D01*
X50224217Y-147119032D01*
X50220153Y-147300028D01*
X50218279Y-147483991D01*
X50218201Y-147523273D01*
X50214916Y-147863828D01*
X50205019Y-148157229D01*
X50188029Y-148406805D01*
X50163468Y-148615880D01*
X50130854Y-148787782D01*
X50089706Y-148925838D01*
X50039544Y-149033374D01*
X49990103Y-149102539D01*
X49896507Y-149177401D01*
X49777285Y-149228938D01*
X49662466Y-149246847D01*
X49641919Y-149248677D01*
X49627348Y-149259132D01*
X49617726Y-149285664D01*
X49612027Y-149335725D01*
X49609225Y-149416765D01*
X49608295Y-149536237D01*
X49608209Y-149640941D01*
X49608209Y-150035035D01*
X17063664Y-150035035D01*
X17063664Y-149628229D01*
X24080773Y-149628229D01*
X24869270Y-149628229D01*
X24869270Y-147962863D01*
X24869553Y-147677044D01*
X24870370Y-147406768D01*
X24871673Y-147156235D01*
X24873413Y-146929646D01*
X24875544Y-146731203D01*
X24878015Y-146565107D01*
X24880780Y-146435559D01*
X24883790Y-146346761D01*
X24886997Y-146302914D01*
X24888339Y-146298903D01*
X24912796Y-146310256D01*
X24980300Y-146343202D01*
X25088439Y-146396539D01*
X25234805Y-146469064D01*
X25416987Y-146559575D01*
X25632576Y-146666871D01*
X25879161Y-146789749D01*
X26154334Y-146927009D01*
X26455683Y-147077447D01*
X26780800Y-147239861D01*
X27127274Y-147413051D01*
X27492695Y-147595814D01*
X27874654Y-147786947D01*
X28270741Y-147985250D01*
X28581382Y-148140841D01*
X28986746Y-148343844D01*
X29379898Y-148540594D01*
X29758424Y-148729888D01*
X30119907Y-148910525D01*
X30461933Y-149081300D01*
X30782085Y-149241013D01*
X31077949Y-149388459D01*
X31347108Y-149522438D01*
X31587148Y-149641746D01*
X31795653Y-149745181D01*
X31970208Y-149831539D01*
X32108396Y-149899620D01*
X32207803Y-149948220D01*
X32266012Y-149976136D01*
X32281218Y-149982780D01*
X32300936Y-149961691D01*
X32338194Y-149902631D01*
X32388474Y-149813448D01*
X32447261Y-149701990D01*
X32479594Y-149638033D01*
X32538808Y-149517828D01*
X32588231Y-149414817D01*
X32624137Y-149336991D01*
X32642796Y-149292337D01*
X32644423Y-149284858D01*
X32621239Y-149272932D01*
X32554872Y-149239428D01*
X32447625Y-149185499D01*
X32301802Y-149112300D01*
X32119707Y-149020984D01*
X31903644Y-148912704D01*
X31655915Y-148788613D01*
X31378826Y-148649866D01*
X31074679Y-148497615D01*
X30745779Y-148333015D01*
X30394430Y-148157218D01*
X30022934Y-147971379D01*
X29633597Y-147776650D01*
X29228721Y-147574186D01*
X28810611Y-147365139D01*
X28643111Y-147281402D01*
X24649485Y-145284971D01*
X24371640Y-145456163D01*
X24093794Y-145627355D01*
X24087284Y-147627792D01*
X24080773Y-149628229D01*
X17063664Y-149628229D01*
X17063664Y-144085486D01*
X90187188Y-144085486D01*
X90187188Y-196690691D01*
X17063664Y-196690691D01*
X17063664Y-195093882D01*
X49608209Y-195093882D01*
X49767118Y-195076574D01*
X49885721Y-195060365D01*
X50016159Y-195037734D01*
X50086198Y-195023300D01*
X50342696Y-194946418D01*
X50619284Y-194827263D01*
X50911447Y-194668062D01*
X51214670Y-194471042D01*
X51236212Y-194455879D01*
X51366877Y-194360507D01*
X51501454Y-194255991D01*
X51643929Y-194138755D01*
X51798285Y-194005222D01*
X51968509Y-193851814D01*
X52158585Y-193674956D01*
X52372499Y-193471069D01*
X52614236Y-193236577D01*
X52824525Y-193030268D01*
X53096525Y-192763355D01*
X53336959Y-192529807D01*
X53549558Y-192326384D01*
X53738056Y-192149847D01*
X53906184Y-191996958D01*
X54057676Y-191864478D01*
X54196263Y-191749168D01*
X54325679Y-191647789D01*
X54449657Y-191557103D01*
X54571928Y-191473871D01*
X54696226Y-191394854D01*
X54740354Y-191367925D01*
X54938654Y-191261609D01*
X55140124Y-191178435D01*
X55337084Y-191119950D01*
X55521853Y-191087703D01*
X55686749Y-191083241D01*
X55824092Y-191108111D01*
X55888202Y-191136646D01*
X55965973Y-191193816D01*
X56031464Y-191269139D01*
X56085536Y-191366622D01*
X56129049Y-191490268D01*
X56162864Y-191644083D01*
X56187841Y-191832071D01*
X56204840Y-192058238D01*
X56214723Y-192326588D01*
X56218350Y-192641126D01*
X56218400Y-192673474D01*
X56222207Y-193020376D01*
X56233508Y-193322061D01*
X56253020Y-193583710D01*
X56281461Y-193810503D01*
X56319550Y-194007622D01*
X56368004Y-194180246D01*
X56427541Y-194333556D01*
X56457043Y-194395456D01*
X56591543Y-194612570D01*
X56755368Y-194788373D01*
X56949218Y-194923340D01*
X57173791Y-195017944D01*
X57429786Y-195072661D01*
X57458309Y-195076088D01*
X57617218Y-195093882D01*
X57617218Y-194682082D01*
X74245446Y-194682082D01*
X75033634Y-194682082D01*
X75033634Y-191071672D01*
X80245846Y-191071672D01*
X80245846Y-194693670D01*
X80442297Y-194891280D01*
X80638747Y-195088889D01*
X82647424Y-195088889D01*
X82845034Y-194892439D01*
X83042643Y-194695988D01*
X83042643Y-190690291D01*
X82254796Y-190690291D01*
X82248269Y-192489140D01*
X82241742Y-194287988D01*
X81637888Y-194294805D01*
X81034034Y-194301621D01*
X81034034Y-190678703D01*
X80837584Y-190481093D01*
X80641133Y-190283484D01*
X74640665Y-190283484D01*
X74443055Y-190479934D01*
X74245446Y-190676385D01*
X74245446Y-194682082D01*
X57617218Y-194682082D01*
X57617218Y-194304306D01*
X57478923Y-194275596D01*
X57348701Y-194235829D01*
X57254297Y-194173183D01*
X57182320Y-194077613D01*
X57161237Y-194037198D01*
X57129662Y-193964616D01*
X57103076Y-193884876D01*
X57080902Y-193792667D01*
X57062566Y-193682679D01*
X57047492Y-193549603D01*
X57035105Y-193388129D01*
X57024830Y-193192945D01*
X57016091Y-192958743D01*
X57008314Y-192680211D01*
X57006614Y-192609910D01*
X56998753Y-192316227D01*
X56989658Y-192067389D01*
X56978523Y-191857391D01*
X56964544Y-191680230D01*
X56946914Y-191529901D01*
X56924826Y-191400400D01*
X56897474Y-191285724D01*
X56864054Y-191179867D01*
X56823757Y-191076825D01*
X56790862Y-191002798D01*
X56666175Y-190788382D01*
X56509342Y-190611306D01*
X56323434Y-190472224D01*
X56111521Y-190371794D01*
X55876674Y-190310672D01*
X55621962Y-190289513D01*
X55350457Y-190308974D01*
X55065229Y-190369710D01*
X54769347Y-190472379D01*
X54619937Y-190538894D01*
X54465359Y-190616311D01*
X54314352Y-190699986D01*
X54163302Y-190792858D01*
X54008595Y-190897869D01*
X53846616Y-191017960D01*
X53673751Y-191156070D01*
X53486385Y-191315141D01*
X53280905Y-191498113D01*
X53053696Y-191707927D01*
X52801143Y-191947524D01*
X52519633Y-192219844D01*
X52350128Y-192385636D01*
X52163254Y-192568138D01*
X51977305Y-192748121D01*
X51797455Y-192920684D01*
X51628882Y-193080928D01*
X51476762Y-193223952D01*
X51346271Y-193344854D01*
X51242587Y-193438734D01*
X51182745Y-193490815D01*
X50909714Y-193710850D01*
X50658549Y-193891295D01*
X50423495Y-194035251D01*
X50198794Y-194145823D01*
X49978691Y-194226113D01*
X49757430Y-194279225D01*
X49703554Y-194288266D01*
X49608209Y-194303005D01*
X49608209Y-195093882D01*
X17063664Y-195093882D01*
X17063664Y-194331032D01*
X24320089Y-194331032D01*
X24327578Y-194356961D01*
X24353299Y-194418479D01*
X24392616Y-194505913D01*
X24440891Y-194609592D01*
X24493486Y-194719846D01*
X24545764Y-194827001D01*
X24593087Y-194921386D01*
X24630817Y-194993330D01*
X24654317Y-195033162D01*
X24659108Y-195038038D01*
X24682208Y-195026863D01*
X24748398Y-194994130D01*
X24855290Y-194941033D01*
X25000494Y-194868763D01*
X25181622Y-194778512D01*
X25396286Y-194671473D01*
X25642097Y-194548838D01*
X25916667Y-194411799D01*
X26217606Y-194261547D01*
X26542527Y-194099276D01*
X26889041Y-193926177D01*
X27254758Y-193743442D01*
X27637292Y-193552264D01*
X28034252Y-193353834D01*
X28378013Y-193181965D01*
X32090091Y-191325892D01*
X32090091Y-194682082D01*
X32878279Y-194682082D01*
X32876661Y-190677578D01*
X32306207Y-190328872D01*
X28318841Y-192321143D01*
X27896368Y-192532297D01*
X27486193Y-192737435D01*
X27090624Y-192935398D01*
X26711971Y-193125025D01*
X26352544Y-193305154D01*
X26014652Y-193474625D01*
X25700605Y-193632277D01*
X25412711Y-193776949D01*
X25153281Y-193907481D01*
X24924625Y-194022711D01*
X24729050Y-194121479D01*
X24568868Y-194202625D01*
X24446386Y-194264986D01*
X24363916Y-194307403D01*
X24323766Y-194328714D01*
X24320089Y-194331032D01*
X17063664Y-194331032D01*
X17063664Y-182736217D01*
X21593608Y-182736217D01*
X21624877Y-183321385D01*
X21705653Y-183908955D01*
X21817012Y-184421319D01*
X21985707Y-184981811D01*
X22199188Y-185520958D01*
X22455180Y-186036681D01*
X22751408Y-186526899D01*
X23085597Y-186989533D01*
X23455472Y-187422502D01*
X23858759Y-187823728D01*
X24293183Y-188191130D01*
X24756469Y-188522628D01*
X25246343Y-188816142D01*
X25760529Y-189069593D01*
X26296752Y-189280901D01*
X26852739Y-189447986D01*
X27426214Y-189568767D01*
X27451440Y-189572925D01*
X27606051Y-189596420D01*
X27772198Y-189618899D01*
X27928149Y-189637558D01*
X28034735Y-189648175D01*
X28207025Y-189657839D01*
X28415626Y-189661649D01*
X28646380Y-189659987D01*
X28885132Y-189653233D01*
X29117724Y-189641769D01*
X29330001Y-189625977D01*
X29486985Y-189609034D01*
X30074278Y-189507321D01*
X30645382Y-189357752D01*
X31198456Y-189161255D01*
X31731656Y-188918761D01*
X32243141Y-188631198D01*
X32731068Y-188299494D01*
X33193594Y-187924580D01*
X33604425Y-187532703D01*
X34005727Y-187084041D01*
X34362159Y-186611489D01*
X34673581Y-186115349D01*
X34854850Y-185761736D01*
X39361762Y-185761736D01*
X40118169Y-185751458D01*
X40338649Y-185748195D01*
X40515189Y-185744732D01*
X40654699Y-185740583D01*
X40764089Y-185735263D01*
X40850269Y-185728285D01*
X40920149Y-185719164D01*
X40980639Y-185707415D01*
X41038648Y-185692550D01*
X41065266Y-185684868D01*
X41393132Y-185562351D01*
X41695752Y-185397770D01*
X41969965Y-185194866D01*
X42212609Y-184957380D01*
X42420523Y-184689053D01*
X42590546Y-184393626D01*
X42719516Y-184074841D01*
X42804273Y-183736437D01*
X42824245Y-183603357D01*
X42837399Y-183301856D01*
X42806425Y-182990199D01*
X42778251Y-182869660D01*
X46625455Y-182869660D01*
X46664157Y-183448611D01*
X46750067Y-184016373D01*
X46881577Y-184570613D01*
X47057075Y-185108997D01*
X47274951Y-185629191D01*
X47533593Y-186128861D01*
X47831392Y-186605675D01*
X48166737Y-187057298D01*
X48538016Y-187481397D01*
X48943620Y-187875638D01*
X49381937Y-188237688D01*
X49851357Y-188565212D01*
X50350269Y-188855878D01*
X50877063Y-189107352D01*
X51430128Y-189317300D01*
X51509297Y-189343161D01*
X51924992Y-189459491D01*
X52375366Y-189552917D01*
X52864901Y-189624276D01*
X53193194Y-189658083D01*
X53299428Y-189663246D01*
X53444678Y-189664421D01*
X53617304Y-189662037D01*
X53805662Y-189656526D01*
X53998110Y-189648318D01*
X54183008Y-189637843D01*
X54348712Y-189625532D01*
X54483582Y-189611817D01*
X54499700Y-189609761D01*
X55088378Y-189507181D01*
X55660514Y-189357590D01*
X56213756Y-189162561D01*
X56745752Y-188923668D01*
X57254150Y-188642482D01*
X57736597Y-188320578D01*
X58190742Y-187959526D01*
X58614231Y-187560900D01*
X59004713Y-187126273D01*
X59359836Y-186657218D01*
X59677247Y-186155306D01*
X59683988Y-186143558D01*
X59952407Y-185624615D01*
X60174266Y-185089061D01*
X60349673Y-184540105D01*
X60478734Y-183980954D01*
X60561557Y-183414816D01*
X60598248Y-182844899D01*
X60595363Y-182668569D01*
X71666767Y-182668569D01*
X71667671Y-182930495D01*
X71672111Y-183152740D01*
X71681130Y-183346413D01*
X71695773Y-183522623D01*
X71717085Y-183692479D01*
X71746110Y-183867089D01*
X71783892Y-184057563D01*
X71807808Y-184168669D01*
X71958089Y-184736245D01*
X72155198Y-185287341D01*
X72397096Y-185818944D01*
X72681747Y-186328041D01*
X73007114Y-186811617D01*
X73371159Y-187266658D01*
X73771847Y-187690152D01*
X74207140Y-188079083D01*
X74675001Y-188430439D01*
X74699722Y-188447313D01*
X75213391Y-188766421D01*
X75744519Y-189037793D01*
X76292722Y-189261291D01*
X76857618Y-189436780D01*
X77438824Y-189564125D01*
X78035956Y-189643190D01*
X78087005Y-189647644D01*
X78293461Y-189658906D01*
X78534852Y-189662213D01*
X78795971Y-189658077D01*
X79061612Y-189647007D01*
X79316569Y-189629516D01*
X79545635Y-189606114D01*
X79620467Y-189596106D01*
X80125075Y-189507118D01*
X80599566Y-189388602D01*
X81057952Y-189236080D01*
X81514245Y-189045075D01*
X81834935Y-188888637D01*
X82351039Y-188595319D01*
X82836569Y-188262748D01*
X83289658Y-187893257D01*
X83708438Y-187489185D01*
X84091039Y-187052864D01*
X84435595Y-186586633D01*
X84740236Y-186092825D01*
X85003095Y-185573777D01*
X85222302Y-185031824D01*
X85395990Y-184469302D01*
X85408415Y-184421319D01*
X85476980Y-184137346D01*
X85529861Y-183879477D01*
X85568761Y-183633677D01*
X85595382Y-183385909D01*
X85611423Y-183122138D01*
X85618589Y-182828326D01*
X85619371Y-182681282D01*
X85615659Y-182359907D01*
X85603075Y-182074796D01*
X85580107Y-181811898D01*
X85545244Y-181557163D01*
X85496974Y-181296538D01*
X85445433Y-181064787D01*
X85286964Y-180501898D01*
X85083378Y-179959162D01*
X84836953Y-179438748D01*
X84549963Y-178942828D01*
X84224686Y-178473573D01*
X83863398Y-178033153D01*
X83468375Y-177623740D01*
X83041893Y-177247504D01*
X82586228Y-176906617D01*
X82103657Y-176603248D01*
X81596456Y-176339570D01*
X81066901Y-176117752D01*
X80517268Y-175939966D01*
X79949833Y-175808382D01*
X79930104Y-175804719D01*
X79602432Y-175751401D01*
X79287768Y-175715852D01*
X78968505Y-175696800D01*
X78627033Y-175692975D01*
X78432412Y-175696649D01*
X77956954Y-175723050D01*
X77510149Y-175776716D01*
X77076144Y-175860319D01*
X76639083Y-175976532D01*
X76482883Y-176025267D01*
X75930684Y-176230021D01*
X75401604Y-176478910D01*
X74897898Y-176769696D01*
X74421821Y-177100138D01*
X73975628Y-177467999D01*
X73561576Y-177871040D01*
X73181917Y-178307021D01*
X72838909Y-178773705D01*
X72534805Y-179268852D01*
X72271862Y-179790223D01*
X72052333Y-180335581D01*
X72006580Y-180469114D01*
X71906337Y-180788746D01*
X71826434Y-181085379D01*
X71765007Y-181371063D01*
X71720195Y-181657853D01*
X71690135Y-181957800D01*
X71672966Y-182282957D01*
X71666826Y-182645377D01*
X71666767Y-182668569D01*
X60595363Y-182668569D01*
X60588915Y-182274413D01*
X60533665Y-181706563D01*
X60432605Y-181144560D01*
X60285841Y-180591610D01*
X60093482Y-180050921D01*
X59855633Y-179525703D01*
X59572403Y-179019162D01*
X59439269Y-178811753D01*
X59086630Y-178328584D01*
X58698848Y-177881067D01*
X58278301Y-177470634D01*
X57827366Y-177098713D01*
X57348421Y-176766734D01*
X56843845Y-176476128D01*
X56316015Y-176228323D01*
X55767309Y-176024750D01*
X55200105Y-175866839D01*
X54616781Y-175756019D01*
X54290149Y-175715679D01*
X53956244Y-175693196D01*
X53592747Y-175688089D01*
X53217622Y-175699726D01*
X52848832Y-175727477D01*
X52504341Y-175770709D01*
X52443144Y-175780617D01*
X51871877Y-175902424D01*
X51313075Y-176072422D01*
X50770293Y-176288738D01*
X50247083Y-176549499D01*
X49746999Y-176852831D01*
X49273594Y-177196863D01*
X48830422Y-177579722D01*
X48601483Y-177805511D01*
X48265055Y-178175110D01*
X47969646Y-178548113D01*
X47706286Y-178937226D01*
X47466000Y-179355154D01*
X47357735Y-179566667D01*
X47142389Y-180036502D01*
X46968626Y-180493488D01*
X46833387Y-180949125D01*
X46733614Y-181414914D01*
X46666248Y-181902356D01*
X46635574Y-182281854D01*
X46625455Y-182869660D01*
X42778251Y-182869660D01*
X42733661Y-182678884D01*
X42621447Y-182378406D01*
X42498744Y-182142615D01*
X42386368Y-181977879D01*
X42244011Y-181804205D01*
X42084228Y-181634772D01*
X41919574Y-181482761D01*
X41762605Y-181361350D01*
X41740275Y-181346447D01*
X41647802Y-181284671D01*
X41591437Y-181241297D01*
X41563765Y-181208430D01*
X41557372Y-181178173D01*
X41561218Y-181155756D01*
X41569671Y-181102957D01*
X41578914Y-181014407D01*
X41587490Y-180905154D01*
X41591119Y-180846666D01*
X41596146Y-180719166D01*
X41593134Y-180623444D01*
X41580178Y-180540799D01*
X41555373Y-180452530D01*
X41549000Y-180433090D01*
X41452569Y-180213338D01*
X41319896Y-180016515D01*
X41157850Y-179850942D01*
X40973302Y-179724940D01*
X40957635Y-179716749D01*
X40870548Y-179675289D01*
X40785457Y-179642933D01*
X40694469Y-179618599D01*
X40589690Y-179601207D01*
X40463229Y-179589679D01*
X40307191Y-179582932D01*
X40113685Y-179579887D01*
X39953918Y-179579380D01*
X39361762Y-179579380D01*
X39361762Y-185761736D01*
X34854850Y-185761736D01*
X34939849Y-185595923D01*
X35160823Y-185053513D01*
X35336359Y-184488421D01*
X35466316Y-183900950D01*
X35536962Y-183418619D01*
X35554409Y-183213959D01*
X35564789Y-182975399D01*
X35568308Y-182716343D01*
X35565173Y-182450191D01*
X35555593Y-182190347D01*
X35539773Y-181950212D01*
X35517921Y-181743189D01*
X35510243Y-181689690D01*
X35393246Y-181091389D01*
X35231004Y-180513206D01*
X35024564Y-179957057D01*
X34774972Y-179424859D01*
X34483276Y-178918526D01*
X34150522Y-178439976D01*
X33777756Y-177991124D01*
X33366025Y-177573885D01*
X33162550Y-177391997D01*
X32687245Y-177016039D01*
X32190201Y-176686040D01*
X31671328Y-176401957D01*
X31130534Y-176163749D01*
X30567729Y-175971374D01*
X29982822Y-175824792D01*
X29567979Y-175750581D01*
X29406677Y-175731450D01*
X29207292Y-175715922D01*
X28982480Y-175704284D01*
X28744901Y-175696823D01*
X28507213Y-175693826D01*
X28282074Y-175695581D01*
X28082142Y-175702375D01*
X27930372Y-175713422D01*
X27339674Y-175797791D01*
X26762790Y-175928916D01*
X26202721Y-176105455D01*
X25662466Y-176326070D01*
X25145026Y-176589419D01*
X24653400Y-176894162D01*
X24190590Y-177238960D01*
X23850457Y-177535850D01*
X23424990Y-177967202D01*
X23042061Y-178424554D01*
X22702366Y-178905547D01*
X22406603Y-179407821D01*
X22155467Y-179929016D01*
X21949658Y-180466772D01*
X21789870Y-181018731D01*
X21676801Y-181582531D01*
X21611148Y-182155813D01*
X21593608Y-182736217D01*
X17063664Y-182736217D01*
X17063664Y-172561962D01*
X49608209Y-172561962D01*
X49685557Y-172561962D01*
X49748190Y-172557012D01*
X49841558Y-172543958D01*
X49946702Y-172525495D01*
X49958880Y-172523110D01*
X50146590Y-172470200D01*
X50348091Y-172386745D01*
X50545184Y-172281728D01*
X50719670Y-172164132D01*
X50771687Y-172121958D01*
X50894992Y-172010528D01*
X51011496Y-171892176D01*
X51124257Y-171762291D01*
X51236333Y-171616264D01*
X51350783Y-171449485D01*
X51470664Y-171257346D01*
X51599034Y-171035236D01*
X51738952Y-170778546D01*
X51893475Y-170482667D01*
X52006319Y-170260961D01*
X52166518Y-169949868D01*
X52311325Y-169682473D01*
X52443263Y-169454887D01*
X52564858Y-169263218D01*
X52678633Y-169103575D01*
X52787113Y-168972068D01*
X52892822Y-168864805D01*
X52937456Y-168825667D01*
X53135564Y-168689032D01*
X53341945Y-168601555D01*
X53552553Y-168563056D01*
X53763341Y-168573356D01*
X53970261Y-168632278D01*
X54169267Y-168739643D01*
X54348976Y-168887988D01*
X54452732Y-168996763D01*
X54553189Y-169116674D01*
X54653667Y-169252988D01*
X54757485Y-169410968D01*
X54867964Y-169595881D01*
X54988423Y-169812992D01*
X55122182Y-170067566D01*
X55243716Y-170307167D01*
X55408921Y-170631900D01*
X55558332Y-170914157D01*
X55695084Y-171158658D01*
X55822312Y-171370124D01*
X55943150Y-171553274D01*
X56060733Y-171712829D01*
X56178196Y-171853509D01*
X56298672Y-171980035D01*
X56425297Y-172097127D01*
X56441866Y-172111466D01*
X56615150Y-172240166D01*
X56813952Y-172354177D01*
X57025494Y-172448255D01*
X57236999Y-172517158D01*
X57435689Y-172555644D01*
X57539869Y-172561962D01*
X57617218Y-172561962D01*
X57617218Y-172167868D01*
X57617182Y-172155156D01*
X74245446Y-172155156D01*
X75033634Y-172155156D01*
X75033634Y-168544745D01*
X78237238Y-168544745D01*
X78237238Y-172166743D01*
X78433688Y-172364353D01*
X78630139Y-172561962D01*
X82647424Y-172561962D01*
X82845034Y-172365512D01*
X83042643Y-172169061D01*
X83042643Y-170553354D01*
X83907108Y-170553354D01*
X90161762Y-170553354D01*
X90161762Y-169765166D01*
X83907108Y-169765166D01*
X83907108Y-170553354D01*
X83042643Y-170553354D01*
X83042643Y-168163364D01*
X82254455Y-168163364D01*
X82254455Y-171774153D01*
X79038139Y-171761061D01*
X79031610Y-169956245D01*
X79025081Y-168151430D01*
X78828803Y-167953993D01*
X78632525Y-167756557D01*
X74640665Y-167756557D01*
X74443055Y-167953008D01*
X74245446Y-168149458D01*
X74245446Y-172155156D01*
X57617182Y-172155156D01*
X57616788Y-172017995D01*
X57614931Y-171911615D01*
X57610799Y-171841373D01*
X57603542Y-171799914D01*
X57592310Y-171779883D01*
X57576255Y-171773927D01*
X57571709Y-171773774D01*
X57477739Y-171761537D01*
X57359795Y-171729242D01*
X57237188Y-171683514D01*
X57129230Y-171630981D01*
X57095996Y-171610567D01*
X56985745Y-171530091D01*
X56880339Y-171437588D01*
X56776787Y-171328776D01*
X56672097Y-171199374D01*
X56563279Y-171045101D01*
X56447342Y-170861675D01*
X56321294Y-170644817D01*
X56271301Y-170553354D01*
X58888489Y-170553354D01*
X73380981Y-170553354D01*
X73380981Y-169765166D01*
X58888489Y-169765166D01*
X58888489Y-170553354D01*
X56271301Y-170553354D01*
X56182145Y-170390244D01*
X56026903Y-170093676D01*
X56001097Y-170043457D01*
X55845621Y-169742782D01*
X55708311Y-169483396D01*
X55586042Y-169260410D01*
X55475689Y-169068933D01*
X55374127Y-168904078D01*
X55278230Y-168760953D01*
X55184875Y-168634669D01*
X55090935Y-168520338D01*
X54993285Y-168413068D01*
X54896974Y-168315916D01*
X54666599Y-168118313D01*
X54426343Y-167967314D01*
X54168172Y-167858708D01*
X53894170Y-167790085D01*
X53620119Y-167765863D01*
X53342422Y-167789064D01*
X53067602Y-167857288D01*
X52802183Y-167968137D01*
X52552687Y-168119209D01*
X52325639Y-168308104D01*
X52237101Y-168399734D01*
X52140501Y-168509895D01*
X52049915Y-168621196D01*
X51962092Y-168738902D01*
X51873782Y-168868280D01*
X51781735Y-169014596D01*
X51682699Y-169183116D01*
X51573426Y-169379107D01*
X51450663Y-169607836D01*
X51311161Y-169874568D01*
X51231182Y-170029538D01*
X51073503Y-170331913D01*
X50932819Y-170591794D01*
X50806155Y-170813451D01*
X50690535Y-171001155D01*
X50582982Y-171159176D01*
X50480521Y-171291785D01*
X50380176Y-171403252D01*
X50278971Y-171497848D01*
X50173930Y-171579844D01*
X50129430Y-171610567D01*
X50032129Y-171663950D01*
X49912825Y-171713051D01*
X49790827Y-171751242D01*
X49685450Y-171771900D01*
X49653718Y-171773774D01*
X49636411Y-171777499D01*
X49624126Y-171793575D01*
X49616015Y-171829359D01*
X49611227Y-171892204D01*
X49608914Y-171989466D01*
X49608226Y-172128499D01*
X49608209Y-172167868D01*
X49608209Y-172561962D01*
X17063664Y-172561962D01*
X17063664Y-171875102D01*
X24195991Y-171875102D01*
X24754399Y-172435248D01*
X28466881Y-168722766D01*
X30329299Y-170585054D01*
X32191716Y-172447342D01*
X32477689Y-172161369D01*
X32763662Y-171875395D01*
X31441701Y-170553354D01*
X33844445Y-170553354D01*
X48336937Y-170553354D01*
X48336937Y-169765166D01*
X33844445Y-169765166D01*
X33844445Y-170553354D01*
X31441701Y-170553354D01*
X30767928Y-169879540D01*
X28772194Y-167883684D01*
X28187166Y-167883684D01*
X26191579Y-169879393D01*
X24195991Y-171875102D01*
X17063664Y-171875102D01*
X17063664Y-170553354D01*
X23318319Y-170553354D01*
G37*
G36*
X78033834Y-126998742D02*
G01*
X77379130Y-127005527D01*
X76724425Y-127012313D01*
X76708643Y-127203003D01*
X78059260Y-127203003D01*
X78059260Y-127838639D01*
X76704405Y-127838639D01*
X76718781Y-128162813D01*
X76730645Y-128347776D01*
X76750394Y-128495741D01*
X76781936Y-128620404D01*
X76829181Y-128735463D01*
X76896038Y-128854614D01*
X76932482Y-128911571D01*
X77075728Y-129094362D01*
X77244115Y-129242000D01*
X77442536Y-129357298D01*
X77675883Y-129443067D01*
X77949049Y-129502120D01*
X77963914Y-129504433D01*
X78059260Y-129519021D01*
X78059260Y-130126927D01*
X77925776Y-130123937D01*
X77818222Y-130117795D01*
X77706948Y-130105931D01*
X77671862Y-130100668D01*
X77386111Y-130027256D01*
X77115624Y-129907703D01*
X76865390Y-129745671D01*
X76640397Y-129544819D01*
X76445634Y-129308809D01*
X76321843Y-129109910D01*
X76243464Y-128946627D01*
X76185467Y-128777054D01*
X76145083Y-128589357D01*
X76119546Y-128371704D01*
X76109266Y-128200951D01*
X76093730Y-127838639D01*
X75898099Y-127838639D01*
X75898099Y-127203003D01*
X76100211Y-127203003D01*
X76114215Y-126402103D01*
X77074024Y-126395440D01*
X78033834Y-126388778D01*
X78033834Y-126998742D01*
G37*
G36*
X32173738Y-128906507D02*
G01*
X32332922Y-128910725D01*
X32476722Y-128922442D01*
X32589069Y-128940252D01*
X32605956Y-128944318D01*
X32855454Y-129034461D01*
X33085111Y-129167006D01*
X33288917Y-129336268D01*
X33460861Y-129536566D01*
X33594935Y-129762214D01*
X33668360Y-129948949D01*
X33702337Y-130105513D01*
X33719056Y-130287732D01*
X33717832Y-130473188D01*
X33697981Y-130639465D01*
X33690480Y-130673574D01*
X33613689Y-130895082D01*
X33497136Y-131110011D01*
X33349066Y-131307307D01*
X33177727Y-131475915D01*
X32999049Y-131600502D01*
X32924778Y-131644209D01*
X32872150Y-131678867D01*
X32852853Y-131696571D01*
X32875945Y-131727761D01*
X32943006Y-131775381D01*
X33050716Y-131837166D01*
X33087777Y-131856732D01*
X33242379Y-131923103D01*
X33413568Y-131973899D01*
X33578982Y-132003210D01*
X33660111Y-132008033D01*
X33768169Y-132008409D01*
X33768169Y-132618619D01*
X33606970Y-132618619D01*
X33407054Y-132600863D01*
X33188137Y-132551052D01*
X32965848Y-132474371D01*
X32755812Y-132376004D01*
X32611831Y-132288446D01*
X32496897Y-132209369D01*
X32496897Y-132618619D01*
X31886687Y-132618619D01*
X31886687Y-131170052D01*
X32496897Y-131170052D01*
X32592243Y-131130396D01*
X32678315Y-131088270D01*
X32766467Y-131036049D01*
X32779297Y-131027416D01*
X32880657Y-130936584D01*
X32975868Y-130814568D01*
X33050921Y-130680425D01*
X33071212Y-130630317D01*
X33099619Y-130506347D01*
X33110257Y-130358105D01*
X33102542Y-130209174D01*
X33084058Y-130110081D01*
X33020340Y-129959922D01*
X32917617Y-129816671D01*
X32787453Y-129692551D01*
X32641416Y-129599786D01*
X32574952Y-129571998D01*
X32496897Y-129544788D01*
X32496897Y-131170052D01*
X31886687Y-131170052D01*
X31886687Y-128906507D01*
X32173738Y-128906507D01*
G37*
G36*
X61407514Y-200988609D02*
G01*
X61420294Y-200996384D01*
X61430773Y-201007811D01*
X61439125Y-201027500D01*
X61445525Y-201060064D01*
X61450148Y-201110114D01*
X61453169Y-201182262D01*
X61454763Y-201281120D01*
X61455103Y-201411299D01*
X61454366Y-201577412D01*
X61452726Y-201784069D01*
X61450358Y-202035884D01*
X61449717Y-202101866D01*
X61446867Y-202381793D01*
X61443793Y-202616428D01*
X61439819Y-202811328D01*
X61434274Y-202972049D01*
X61426483Y-203104148D01*
X61415772Y-203213182D01*
X61401469Y-203304707D01*
X61382900Y-203384280D01*
X61359391Y-203457457D01*
X61330268Y-203529796D01*
X61294859Y-203606854D01*
X61258108Y-203682683D01*
X61126433Y-203896125D01*
X60957361Y-204079306D01*
X60756134Y-204229674D01*
X60527994Y-204344675D01*
X60278184Y-204421756D01*
X60011945Y-204458363D01*
X59734521Y-204451944D01*
X59689390Y-204446746D01*
X59411704Y-204388923D01*
X59162890Y-204290986D01*
X58944970Y-204154314D01*
X58759966Y-203980283D01*
X58609902Y-203770270D01*
X58561215Y-203678768D01*
X58519883Y-203591192D01*
X58485334Y-203509330D01*
X58456963Y-203427689D01*
X58434169Y-203340781D01*
X58416347Y-203243114D01*
X58402892Y-203129198D01*
X58393202Y-202993542D01*
X58386672Y-202830656D01*
X58382699Y-202635049D01*
X58380679Y-202401231D01*
X58380009Y-202123711D01*
X58379980Y-202030650D01*
X58379980Y-200986684D01*
X58996547Y-200993492D01*
X59613114Y-201000301D01*
X59619658Y-202636318D01*
X59626202Y-204272336D01*
X59975614Y-204261989D01*
X60131665Y-204255841D01*
X60248755Y-204246959D01*
X60338757Y-204233748D01*
X60413547Y-204214608D01*
X60464865Y-204196173D01*
X60669452Y-204088252D01*
X60849174Y-203938991D01*
X60998452Y-203754103D01*
X61111706Y-203539298D01*
X61115422Y-203530131D01*
X61148208Y-203444447D01*
X61175386Y-203362037D01*
X61197474Y-203277164D01*
X61214988Y-203184093D01*
X61228445Y-203077088D01*
X61238362Y-202950412D01*
X61245257Y-202798330D01*
X61249647Y-202615105D01*
X61252048Y-202395001D01*
X61252977Y-202132283D01*
X61253053Y-202003263D01*
X61253130Y-201753093D01*
X61253522Y-201548936D01*
X61254471Y-201385953D01*
X61256219Y-201259305D01*
X61259009Y-201164156D01*
X61263083Y-201095666D01*
X61268684Y-201048997D01*
X61276052Y-201019311D01*
X61285431Y-201001769D01*
X61297063Y-200991534D01*
X61303904Y-200987588D01*
X61367901Y-200974296D01*
X61407514Y-200988609D01*
G37*
G36*
X30343382Y-50163964D02*
G01*
X30339318Y-49974940D01*
X30338249Y-49824837D01*
X30340763Y-49701783D01*
X30347446Y-49593906D01*
X30358883Y-49489334D01*
X30375661Y-49376193D01*
X30385077Y-49319511D01*
X30487114Y-48851888D01*
X30630977Y-48410589D01*
X30819077Y-47989910D01*
X31053825Y-47584145D01*
X31220790Y-47341742D01*
X31316913Y-47221102D01*
X31442556Y-47079250D01*
X31587368Y-46926538D01*
X31741000Y-46773317D01*
X31893100Y-46629936D01*
X32033319Y-46506746D01*
X32140941Y-46421591D01*
X32549469Y-46152146D01*
X32971358Y-45931568D01*
X33407513Y-45759590D01*
X33858843Y-45635950D01*
X34326254Y-45560380D01*
X34810652Y-45532617D01*
X35153854Y-45541116D01*
X35604414Y-45591746D01*
X36049014Y-45690800D01*
X36482868Y-45835865D01*
X36901188Y-46024529D01*
X37299190Y-46254378D01*
X37672086Y-46523000D01*
X38015091Y-46827981D01*
X38283905Y-47119153D01*
X38575553Y-47504683D01*
X38822137Y-47911638D01*
X39023045Y-48336866D01*
X39177665Y-48777214D01*
X39285384Y-49229533D01*
X39345592Y-49690669D01*
X39357675Y-50157471D01*
X39321023Y-50626787D01*
X39235022Y-51095467D01*
X39129064Y-51471558D01*
X39063583Y-51647609D01*
X38975261Y-51850323D01*
X38871360Y-52065378D01*
X38759139Y-52278450D01*
X38645860Y-52475219D01*
X38538784Y-52641363D01*
X38528758Y-52655656D01*
X38413945Y-52804287D01*
X38268208Y-52972325D01*
X38101874Y-53149443D01*
X37925268Y-53325314D01*
X37748717Y-53489608D01*
X37582547Y-53631998D01*
X37454855Y-53729741D01*
X37177659Y-53907029D01*
X36865869Y-54073294D01*
X36534460Y-54222070D01*
X36198406Y-54346888D01*
X35872680Y-54441280D01*
X35738639Y-54471079D01*
X35389026Y-54525342D01*
X35023363Y-54553993D01*
X34661693Y-54556121D01*
X34352953Y-54534238D01*
X33883934Y-54455629D01*
X33425243Y-54328793D01*
X32982384Y-54155752D01*
X32560861Y-53938528D01*
X32318919Y-53786779D01*
X31941485Y-53502447D01*
X31597737Y-53181389D01*
X31289760Y-52826719D01*
X31019644Y-52441554D01*
X30789475Y-52029008D01*
X30601340Y-51592198D01*
X30457328Y-51134239D01*
X30411168Y-50939440D01*
X30389226Y-50823475D01*
X30372432Y-50699622D01*
X30359857Y-50557266D01*
X30350573Y-50385788D01*
X30346108Y-50249519D01*
X30361850Y-50249519D01*
X30407947Y-50720400D01*
X30499602Y-51175461D01*
X30636643Y-51615617D01*
X30817246Y-52033399D01*
X31038308Y-52426638D01*
X31296727Y-52793167D01*
X31589401Y-53130818D01*
X31913228Y-53437422D01*
X32265104Y-53710812D01*
X32641929Y-53948819D01*
X33040599Y-54149276D01*
X33458012Y-54310015D01*
X33891067Y-54428867D01*
X34336661Y-54503665D01*
X34791691Y-54532241D01*
X35253056Y-54512426D01*
X35271931Y-54510563D01*
X35747593Y-54437626D01*
X36206601Y-54317404D01*
X36646279Y-54151502D01*
X37063952Y-53941526D01*
X37456944Y-53689083D01*
X37822578Y-53395777D01*
X38158180Y-53063217D01*
X38461073Y-52693006D01*
X38578373Y-52525958D01*
X38814278Y-52129681D01*
X39007754Y-51710346D01*
X39157370Y-51273480D01*
X39261695Y-50824612D01*
X39319296Y-50369268D01*
X39328743Y-49912975D01*
X39314680Y-49683055D01*
X39270047Y-49312993D01*
X39203060Y-48974098D01*
X39109116Y-48650037D01*
X38983613Y-48324477D01*
X38851943Y-48040941D01*
X38701340Y-47757947D01*
X38542588Y-47505026D01*
X38365112Y-47267475D01*
X38158337Y-47030592D01*
X38026927Y-46893885D01*
X37677872Y-46571522D01*
X37313599Y-46296350D01*
X36929643Y-46065918D01*
X36521537Y-45877777D01*
X36084816Y-45729478D01*
X35753252Y-45646666D01*
X35526712Y-45608125D01*
X35266745Y-45581199D01*
X34989549Y-45566400D01*
X34711321Y-45564238D01*
X34448256Y-45575224D01*
X34225826Y-45598496D01*
X33748182Y-45692732D01*
X33291371Y-45832654D01*
X32857128Y-46017398D01*
X32447186Y-46246105D01*
X32063278Y-46517912D01*
X31707138Y-46831957D01*
X31669355Y-46869422D01*
X31351283Y-47223618D01*
X31075605Y-47603911D01*
X30843216Y-48007011D01*
X30655007Y-48429630D01*
X30511872Y-48868480D01*
X30414706Y-49320270D01*
X30364400Y-49781713D01*
X30361850Y-50249519D01*
X30346108Y-50249519D01*
X30343653Y-50174574D01*
X30343382Y-50163964D01*
G37*
G04 #@! TD*
M02*
