M48
; DRILL file {KiCad 6.0.5-a6ca702e91~116~ubuntu20.04.1} date Wed May 11 11:30:29 2022
; FORMAT={-:-/ absolute / metric / decimal}
; #@! TF.CreationDate,2022-05-11T11:30:29-04:00
; #@! TF.GenerationSoftware,Kicad,Pcbnew,6.0.5-a6ca702e91~116~ubuntu20.04.1
; #@! TF.FileFunction,MixedPlating,1,2
FMAT,2
METRIC
; #@! TA.AperFunction,Plated,PTH,ViaDrill
T1C0.400
; #@! TA.AperFunction,Plated,PTH,ComponentDrill
T2C0.700
; #@! TA.AperFunction,Plated,PTH,ComponentDrill
T3C0.800
; #@! TA.AperFunction,Plated,PTH,ComponentDrill
T4C0.900
; #@! TA.AperFunction,Plated,PTH,ComponentDrill
T5C1.000
; #@! TA.AperFunction,Plated,PTH,ComponentDrill
T6C1.016
; #@! TA.AperFunction,Plated,PTH,ComponentDrill
T7C1.100
; #@! TA.AperFunction,Plated,PTH,ComponentDrill
T8C1.200
%
G90
G05
T1
X83.998Y-153.989
X85.903Y-168.848
X91.645Y-144.945
X91.665Y-96.665
T2
X106.35Y-34.99
X111.43Y-34.99
X116.51Y-34.99
T3
X69.52Y-89.6
X69.52Y-99.76
X69.52Y-137.86
X69.52Y-148.02
X71.0Y-153.0
X71.0Y-178.0
X74.6Y-73.09
X74.6Y-81.98
X74.6Y-89.6
X74.6Y-121.35
X74.6Y-130.24
X74.6Y-137.86
X77.14Y-78.17
X77.14Y-93.41
X77.14Y-126.43
X77.14Y-141.67
X81.16Y-153.0
X81.16Y-178.0
X82.26Y-62.93
X82.26Y-85.79
X82.26Y-111.19
X82.26Y-134.05
X84.76Y-62.93
X84.76Y-73.09
X84.76Y-78.17
X84.76Y-81.98
X84.76Y-85.79
X84.76Y-89.6
X84.76Y-93.41
X84.76Y-111.19
X84.76Y-121.35
X84.76Y-126.43
X84.76Y-130.24
X84.76Y-134.05
X84.76Y-137.86
X84.76Y-141.67
X84.8Y-51.5
X87.3Y-51.5
X89.83Y-62.94
X89.83Y-65.48
X89.83Y-68.02
X89.83Y-70.56
X89.83Y-111.2
X89.83Y-113.74
X89.83Y-116.28
X89.83Y-118.82
X89.84Y-78.175
X89.84Y-80.715
X89.84Y-83.255
X89.84Y-85.795
X89.84Y-88.335
X89.84Y-90.875
X89.84Y-93.415
X89.84Y-126.43
X89.84Y-128.97
X89.84Y-131.51
X89.84Y-134.05
X89.84Y-136.59
X89.84Y-139.13
X89.84Y-141.67
X94.92Y-74.36
X94.92Y-122.62
X97.42Y-74.36
X97.42Y-122.62
X97.45Y-62.94
X97.45Y-65.48
X97.45Y-68.02
X97.45Y-70.56
X97.45Y-111.2
X97.45Y-113.74
X97.45Y-116.28
X97.45Y-118.82
X97.46Y-78.175
X97.46Y-80.715
X97.46Y-83.255
X97.46Y-85.795
X97.46Y-88.335
X97.46Y-90.875
X97.46Y-93.415
X97.46Y-126.43
X97.46Y-128.97
X97.46Y-131.51
X97.46Y-134.05
X97.46Y-136.59
X97.46Y-139.13
X97.46Y-141.67
X102.54Y-65.47
X102.54Y-69.28
X102.54Y-73.09
X102.54Y-76.9
X102.54Y-89.6
X102.54Y-93.41
X102.54Y-113.73
X102.54Y-117.54
X102.54Y-121.35
X102.54Y-125.16
X102.54Y-137.86
X102.54Y-141.67
X102.58Y-85.79
X102.58Y-134.05
X105.08Y-85.79
X105.08Y-134.05
X107.62Y-83.25
X107.62Y-131.51
X109.62Y-131.51
X112.62Y-83.25
X112.7Y-51.5
X112.7Y-65.47
X112.7Y-69.28
X112.7Y-73.09
X112.7Y-76.9
X112.7Y-89.6
X112.7Y-93.41
X112.7Y-113.73
X112.7Y-117.54
X112.7Y-121.35
X112.7Y-125.16
X112.7Y-137.86
X112.7Y-141.67
X115.2Y-51.5
X116.51Y-75.63
X116.51Y-79.44
X116.51Y-83.25
X116.51Y-87.06
X116.51Y-97.22
X116.51Y-123.89
X116.51Y-127.7
X116.51Y-131.51
X116.51Y-135.32
X116.51Y-145.48
X119.04Y-64.2
X119.04Y-92.14
X119.04Y-112.46
X119.04Y-118.81
X119.05Y-70.55
X119.05Y-140.4
X121.58Y-64.2
X121.58Y-92.14
X121.58Y-112.46
X121.58Y-118.81
X121.59Y-70.55
X121.59Y-140.4
X124.12Y-64.2
X124.12Y-92.14
X124.12Y-112.46
X124.12Y-118.81
X124.13Y-70.55
X124.13Y-140.4
X126.67Y-75.63
X126.67Y-79.44
X126.67Y-83.25
X126.67Y-87.06
X126.67Y-97.22
X126.67Y-123.89
X126.67Y-127.7
X126.67Y-131.51
X126.67Y-135.32
X126.67Y-145.48
X131.75Y-61.66
X131.75Y-71.82
X131.75Y-75.63
X131.75Y-78.17
X131.75Y-80.71
X131.75Y-83.25
X131.75Y-85.79
X131.75Y-88.33
X131.75Y-92.14
X131.75Y-102.3
X131.75Y-109.92
X131.75Y-120.08
X131.75Y-123.89
X131.75Y-126.43
X131.75Y-128.97
X131.75Y-131.51
X131.75Y-134.05
X131.75Y-136.59
X131.75Y-140.4
X131.75Y-150.56
T4
X79.975Y-37.5
X79.975Y-100.0
X82.515Y-37.5
X82.515Y-100.0
T6
X98.73Y-42.61
X98.73Y-45.15
X98.73Y-47.69
X98.73Y-50.23
X98.73Y-52.77
X101.27Y-42.61
X101.27Y-45.15
X101.27Y-47.69
X101.27Y-50.23
X101.27Y-52.77
T7
X92.38Y-41.34
X92.38Y-51.5
X107.62Y-41.34
X107.62Y-51.5
T8
X69.5Y-126.43
X69.5Y-128.97
X69.5Y-131.51
X69.52Y-78.17
X69.52Y-80.71
X69.52Y-83.25
X69.52Y-116.27
X69.52Y-118.81
X69.52Y-121.35
X69.54Y-68.01
X69.54Y-70.55
X69.54Y-73.09
T5
X68.6Y-161.65G85X68.6Y-163.35
G05
X68.6Y-186.65G85X68.6Y-188.35
G05
X69.659Y-169.139G85X70.861Y-170.341
G05
X69.659Y-194.139G85X70.861Y-195.341
G05
X75.35Y-158.6G85X73.65Y-158.6
G05
X75.35Y-183.6G85X73.65Y-183.6
G05
X78.35Y-171.4G85X76.65Y-171.4
G05
X78.35Y-196.4G85X76.65Y-196.4
G05
X81.4Y-164.65G85X81.4Y-166.35
G05
X81.4Y-189.65G85X81.4Y-191.35
G05
X93.6Y-161.65G85X93.6Y-163.35
G05
X93.6Y-186.65G85X93.6Y-188.35
G05
X94.659Y-169.139G85X95.861Y-170.341
G05
X94.659Y-194.139G85X95.861Y-195.341
G05
X100.35Y-158.6G85X98.65Y-158.6
G05
X100.35Y-183.6G85X98.65Y-183.6
G05
X103.35Y-171.4G85X101.65Y-171.4
G05
X103.35Y-196.4G85X101.65Y-196.4
G05
X106.4Y-164.65G85X106.4Y-166.35
G05
X106.4Y-189.65G85X106.4Y-191.35
G05
X118.6Y-161.65G85X118.6Y-163.35
G05
X118.6Y-186.65G85X118.6Y-188.35
G05
X119.659Y-169.139G85X120.861Y-170.341
G05
X119.659Y-194.139G85X120.861Y-195.341
G05
X125.35Y-158.6G85X123.65Y-158.6
G05
X125.35Y-183.6G85X123.65Y-183.6
G05
X128.35Y-171.4G85X126.65Y-171.4
G05
X128.35Y-196.4G85X126.65Y-196.4
G05
X131.4Y-164.65G85X131.4Y-166.35
G05
X131.4Y-189.65G85X131.4Y-191.35
G05
T0
M30
